<svg width="30" height="34" viewBox="0 0 30 34" fill="none" xmlns="http://www.w3.org/2000/svg">
<path d="M28.125 0C27.0895 0 26.25 0.853355 26.25 1.88889C26.25 2.92442 25.4105 3.77778 24.375 3.77778C23.3395 3.77778 22.5 2.93139 22.5 1.89586C22.5 0.852654 21.6543 0 20.6111 0H9.38889C8.34569 0 7.5 0.852654 7.5 1.89586C7.5 2.93139 6.66053 3.77778 5.625 3.77778C4.58947 3.77778 3.75 2.92442 3.75 1.88889C3.75 0.853355 2.91053 0 1.875 0C0.839466 0 0 0.839466 0 1.875V32.125C0 33.1605 0.839466 34 1.875 34C2.91053 34 3.75 33.1466 3.75 32.1111C3.75 31.0756 4.58947 30.2222 5.625 30.2222C6.66053 30.2222 7.5 31.0686 7.5 32.1041C7.5 33.1473 8.34568 34 9.38889 34H20.6111C21.6543 34 22.5 33.1473 22.5 32.1041C22.5 31.0686 23.3395 30.2222 24.375 30.2222C25.4105 30.2222 26.25 31.0756 26.25 32.1111C26.25 33.1466 27.0895 34 28.125 34C29.1605 34 30 33.1605 30 32.125V1.875C30 0.839466 29.1605 0 28.125 0ZM7.5 24.5556C7.5 25.5911 6.66053 26.4444 5.625 26.4444C4.58947 26.4444 3.75 25.5911 3.75 24.5556C3.75 23.52 4.58947 22.6667 5.625 22.6667C6.66053 22.6667 7.5 23.52 7.5 24.5556ZM7.5 17C7.5 18.0355 6.66053 18.8889 5.625 18.8889C4.58947 18.8889 3.75 18.0355 3.75 17C3.75 15.9645 4.58947 15.1111 5.625 15.1111C6.66053 15.1111 7.5 15.9645 7.5 17ZM7.5 9.44444C7.5 10.48 6.66053 11.3333 5.625 11.3333C4.58947 11.3333 3.75 10.48 3.75 9.44444C3.75 8.40891 4.58947 7.55556 5.625 7.55556C6.66053 7.55556 7.5 8.40891 7.5 9.44444ZM26.25 24.5556C26.25 25.5911 25.4105 26.4444 24.375 26.4444C23.3395 26.4444 22.5 25.5911 22.5 24.5556C22.5 23.52 23.3395 22.6667 24.375 22.6667C25.4105 22.6667 26.25 23.52 26.25 24.5556ZM26.25 17C26.25 18.0355 25.4105 18.8889 24.375 18.8889C23.3395 18.8889 22.5 18.0355 22.5 17C22.5 15.9645 23.3395 15.1111 24.375 15.1111C25.4105 15.1111 26.25 15.9645 26.25 17ZM26.25 9.44444C26.25 10.48 25.4105 11.3333 24.375 11.3333C23.3395 11.3333 22.5 10.48 22.5 9.44444C22.5 8.40891 23.3395 7.55556 24.375 7.55556C25.4105 7.55556 26.25 8.40891 26.25 9.44444Z" fill="#C6C6C6"/>
</svg>
