<svg width="31" height="31" viewBox="0 0 31 31" fill="none" xmlns="http://www.w3.org/2000/svg">
<path d="M15.5 27.1667C12.7926 27.1667 10.196 26.0911 8.28161 24.1767C6.36717 22.2623 5.29166 19.6657 5.29166 16.9583C5.29166 14.2509 6.36717 11.6544 8.28161 9.73995C10.196 7.82551 12.7926 6.74999 15.5 6.74999C18.2074 6.74999 20.8039 7.82551 22.7184 9.73995C24.6328 11.6544 25.7083 14.2509 25.7083 16.9583C25.7083 19.6657 24.6328 22.2623 22.7184 24.1767C20.8039 26.0911 18.2074 27.1667 15.5 27.1667ZM15.5 3.83333C12.019 3.83333 8.68063 5.21614 6.21921 7.67755C3.7578 10.139 2.37499 13.4774 2.37499 16.9583C2.37499 20.4393 3.7578 23.7777 6.21921 26.2391C8.68063 28.7005 12.019 30.0833 15.5 30.0833C18.981 30.0833 22.3194 28.7005 24.7808 26.2391C27.2422 23.7777 28.625 20.4393 28.625 16.9583C28.625 13.4774 27.2422 10.139 24.7808 7.67755C22.3194 5.21614 18.981 3.83333 15.5 3.83333ZM16.2292 9.66666H14.0417V18.4167L20.9687 22.5729L22.0625 20.7792L16.2292 17.3229V9.66666ZM9.49166 2.94374L7.62499 0.712494L0.916656 6.32708L2.79791 8.55833L9.49166 2.94374ZM30.0833 6.34166L23.375 0.712494L21.4937 2.94374L28.2021 8.57291L30.0833 6.34166Z" fill="#C1BDBD"/>
</svg>
