<?xml version="1.0" encoding="utf-8"?>
<!-- Generator: Adobe Illustrator 23.1.0, SVG Export Plug-In . SVG Version: 6.00 Build 0)  -->
<svg version="1.1" id="Camada_1" xmlns="http://www.w3.org/2000/svg" xmlns:xlink="http://www.w3.org/1999/xlink" x="0px" y="0px"
	 viewBox="0 0 31 31" style="enable-background:new 0 0 31 31;" xml:space="preserve">
<style type="text/css">
	.st0{fill:#FFFFFF;}
</style>
<path class="st0" d="M15.5,27.2c-2.7,0-5.3-1.1-7.2-3c-1.9-1.9-3-4.5-3-7.2s1.1-5.3,3-7.2c1.9-1.9,4.5-3,7.2-3s5.3,1.1,7.2,3
	c1.9,1.9,3,4.5,3,7.2s-1.1,5.3-3,7.2C20.8,26.1,18.2,27.2,15.5,27.2z M15.5,3.8c-3.5,0-6.8,1.4-9.3,3.8c-2.5,2.5-3.8,5.8-3.8,9.3
	c0,3.5,1.4,6.8,3.8,9.3c2.5,2.5,5.8,3.8,9.3,3.8s6.8-1.4,9.3-3.8s3.8-5.8,3.8-9.3c0-3.5-1.4-6.8-3.8-9.3C22.3,5.2,19,3.8,15.5,3.8z
	 M16.2,9.7H14v8.8l6.9,4.2l1.1-1.8l-5.8-3.5V9.7z M9.5,2.9L7.6,0.7L0.9,6.3l1.9,2.2L9.5,2.9z M30.1,6.3l-6.7-5.6l-1.9,2.2l6.7,5.6
	L30.1,6.3z"/>
</svg>
