<?xml version="1.0" encoding="utf-8"?>
<!-- Generator: Adobe Illustrator 24.0.0, SVG Export Plug-In . SVG Version: 6.00 Build 0)  -->
<svg version="1.1" id="Camada_1" xmlns="http://www.w3.org/2000/svg" xmlns:xlink="http://www.w3.org/1999/xlink" x="0px" y="0px"
	 viewBox="0 0 44 44" style="enable-background:new 0 0 44 44;" xml:space="preserve">
<style type="text/css">
	.st0{fill:#969696;}
</style>
<g>
	<path class="st0" d="M34.6,9.2c0.8-0.8,0.8-2,0-2.8c-0.8-0.8-2-0.8-2.8,0l-8.3,8.3c-0.8,0.8-2,0.8-2.8,0l-8.3-8.3
		c-0.8-0.8-2-0.8-2.8,0c-0.8,0.8-0.8,2,0,2.8l8.3,8.3c0.8,0.8,0.8,2,0,2.8l-8.3,8.3c-0.8,0.8-0.8,2,0,2.8c0.8,0.8,2,0.8,2.8,0
		l8.3-8.3c0.8-0.8,2-0.8,2.8,0l8.3,8.3c0.8,0.8,2,0.8,2.8,0c0.8-0.8,0.8-2,0-2.8l-8.3-8.3c-0.8-0.8-0.8-2,0-2.8L34.6,9.2z"/>
</g>
</svg>
