<svg width="60" height="60" viewBox="0 0 60 60" fill="none" xmlns="http://www.w3.org/2000/svg">
<path fill-rule="evenodd" clip-rule="evenodd" d="M30 60C46.5685 60 60 46.5685 60 30C60 13.4315 46.5685 0 30 0C13.4315 0 0 13.4315 0 30C0 46.5685 13.4315 60 30 60ZM30 56.4C44.5803 56.4 56.4 44.5803 56.4 30C56.4 15.4197 44.5803 3.6 30 3.6C15.4197 3.6 3.6 15.4197 3.6 30C3.6 44.5803 15.4197 56.4 30 56.4ZM32.1774 43.2V29.9985H36.0825L36.6 25.4491H32.1774L32.1841 23.1721C32.1841 21.9856 32.3049 21.3498 34.1311 21.3498H36.5724V16.8H32.6667C27.9755 16.8 26.3242 19.0069 26.3242 22.7182V25.4496H23.4V29.999H26.3242V43.2H32.1774Z" fill="white"/>
</svg>
