<svg width="36" height="33" viewBox="0 0 36 33" fill="none" xmlns="http://www.w3.org/2000/svg">
<path d="M10 33C12.2091 33 14 31.2091 14 29V25C14 22.7909 15.7909 21 18 21C20.2091 21 22 22.7909 22 25V29C22 31.2091 23.7909 33 26 33H28C30.2091 33 32 31.2091 32 29V18.6639C32 17.745 32.745 17 33.6639 17C35.1889 17 35.9105 15.1194 34.777 14.0993L20.6759 1.40828C19.1546 0.0391771 16.8454 0.0391753 15.3241 1.40827L1.22299 14.0993C0.0895038 15.1194 0.811138 17 2.33609 17C3.25504 17 4 17.745 4 18.6639V29C4 31.2091 5.79086 33 8 33H10Z" fill="#C6C6C6"/>
</svg>
