<svg width="60" height="60" viewBox="0 0 60 60" fill="none" xmlns="http://www.w3.org/2000/svg">
<path fill-rule="evenodd" clip-rule="evenodd" d="M30 0C13.4315 0 0 13.4315 0 30C0 46.5685 13.4315 60 30 60C46.5685 60 60 46.5685 60 30C60 13.4315 46.5685 0 30 0ZM30 3.6C15.4197 3.6 3.6 15.4197 3.6 30C3.6 44.5803 15.4197 56.4 30 56.4C44.5803 56.4 56.4 44.5803 56.4 30C56.4 15.4197 44.5803 3.6 30 3.6Z" fill="white"/>
<path d="M30.0007 17.7031C34.0059 17.7031 34.48 17.7181 36.0626 17.7901C37.5251 17.8561 38.3187 18.1007 38.8482 18.3062C39.5487 18.5777 40.0483 18.9032 40.5733 19.4282C41.0983 19.9532 41.4238 20.4528 41.6953 21.1533C41.9008 21.6813 42.1454 22.4764 42.2114 23.9389C42.2834 25.52 42.2984 25.9956 42.2984 30.0008C42.2984 34.006 42.2834 34.48 42.2114 36.0626C42.1454 37.5251 41.9008 38.3187 41.6953 38.8482C41.4238 39.5487 41.0983 40.0483 40.5733 40.5733C40.0483 41.0983 39.5487 41.4238 38.8482 41.6953C38.3202 41.9008 37.5251 42.1454 36.0626 42.2114C34.4815 42.2834 34.0059 42.2984 30.0007 42.2984C25.9955 42.2984 25.52 42.2834 23.9389 42.2114C22.4764 42.1454 21.6828 41.9008 21.1533 41.6953C20.4528 41.4238 19.9532 41.0983 19.4282 40.5733C18.9032 40.0483 18.5777 39.5487 18.3062 38.8482C18.1007 38.3202 17.8561 37.5251 17.7901 36.0626C17.7181 34.4815 17.7031 34.006 17.7031 30.0008C17.7031 25.9956 17.7181 25.5215 17.7901 23.9389C17.8561 22.4764 18.1007 21.6828 18.3062 21.1533C18.5777 20.4528 18.9032 19.9532 19.4282 19.4282C19.9532 18.9032 20.4528 18.5777 21.1533 18.3062C21.6813 18.1007 22.4764 17.8561 23.9389 17.7901C25.5215 17.7181 25.9955 17.7031 30.0007 17.7031ZM30.0007 15C25.9265 15 25.4165 15.018 23.8159 15.09C22.2199 15.1635 21.1293 15.417 20.1753 15.7875C19.1882 16.1716 18.3527 16.6831 17.5186 17.5171C16.6831 18.3512 16.1716 19.1882 15.7875 20.1753C15.417 21.1293 15.1635 22.2199 15.09 23.8159C15.018 25.4165 15 25.9265 15 30.0008C15 34.075 15.018 34.585 15.09 36.1856C15.1635 37.7816 15.417 38.8722 15.7875 39.8262C16.1716 40.8133 16.6831 41.6488 17.5171 42.4829C18.3512 43.3169 19.1882 43.8299 20.1738 44.2125C21.1278 44.583 22.2184 44.8365 23.8144 44.91C25.415 44.9835 25.925 45 29.9992 45C34.0735 45 34.5835 44.9835 36.1841 44.91C37.7801 44.8365 38.8707 44.583 39.8247 44.2125C40.8118 43.8284 41.6473 43.3169 42.4814 42.4829C43.3154 41.6488 43.8284 40.8118 44.211 39.8262C44.5815 38.8722 44.835 37.7816 44.9085 36.1856C44.982 34.585 44.9985 34.075 44.9985 30.0008C44.9985 25.9265 44.9805 25.4165 44.9085 23.8159C44.835 22.2199 44.5815 21.1293 44.211 20.1753C43.8269 19.1882 43.3154 18.3527 42.4814 17.5186C41.6473 16.6846 40.8103 16.1716 39.8247 15.789C38.8707 15.4185 37.7801 15.165 36.1841 15.0915C34.585 15.018 34.075 15 30.0007 15Z" fill="white"/>
<path d="M30.0007 22.2979C25.7465 22.2979 22.2979 25.7465 22.2979 30.0007C22.2979 34.2549 25.7465 37.7036 30.0007 37.7036C34.2549 37.7036 37.7036 34.2549 37.7036 30.0007C37.7036 25.7465 34.2549 22.2979 30.0007 22.2979ZM30.0007 35.0005C27.2391 35.0005 25.001 32.7624 25.001 30.0007C25.001 27.2391 27.2391 25.001 30.0007 25.001C32.7624 25.001 35.0005 27.2391 35.0005 30.0007C35.0005 32.7624 32.7624 35.0005 30.0007 35.0005Z" fill="white"/>
<path d="M38.0082 23.7934C39.0024 23.7934 39.8083 22.9875 39.8083 21.9933C39.8083 20.9992 39.0024 20.1932 38.0082 20.1932C37.0141 20.1932 36.2081 20.9992 36.2081 21.9933C36.2081 22.9875 37.0141 23.7934 38.0082 23.7934Z" fill="white"/>
</svg>
