<?xml version="1.0" encoding="utf-8"?>
<!-- Generator: Adobe Illustrator 19.2.1, SVG Export Plug-In . SVG Version: 6.00 Build 0)  -->
<svg version="1.1" id="Camada_1" xmlns="http://www.w3.org/2000/svg" xmlns:xlink="http://www.w3.org/1999/xlink" x="0px" y="0px"
	 viewBox="0 0 26.3 26.2" style="enable-background:new 0 0 26.3 26.2;" xml:space="preserve">
<style type="text/css">
	.st0{opacity:0.23;fill:#FFFFFF;}
	.st1{fill:#FFFFFF;}
</style>
<path class="st0" d="M13.1,23.3c-2.7,0-5.3-1.1-7.2-3c-1.9-1.9-3-4.5-3-7.2s1.1-5.3,3-7.2c1.9-1.9,4.5-3,7.2-3s5.3,1.1,7.2,3
	c1.9,1.9,3,4.5,3,7.2s-1.1,5.3-3,7.2C18.4,22.3,15.8,23.3,13.1,23.3z M13.1,0C9.6,0,6.3,1.4,3.8,3.8C1.4,6.3,0,9.6,0,13.1
	c0,3.5,1.4,6.8,3.8,9.3c2.5,2.5,5.8,3.8,9.3,3.8s6.8-1.4,9.3-3.8s3.8-5.8,3.8-9.3c0-3.5-1.4-6.8-3.8-9.3C19.9,1.4,16.6,0,13.1,0z"/>
<g>
	<path class="st1" d="M5.9,20.3c-1.9-1.9-3-4.5-3-7.2H0c0,3.5,1.4,6.8,3.8,9.3c2.5,2.5,5.8,3.8,9.3,3.8v-2.9
		C10.4,23.3,7.8,22.3,5.9,20.3z"/>
</g>
</svg>
