<?xml version="1.0" encoding="utf-8"?>
<!-- Generator: Adobe Illustrator 23.1.0, SVG Export Plug-In . SVG Version: 6.00 Build 0)  -->
<svg version="1.1" id="Camada_1" xmlns="http://www.w3.org/2000/svg" xmlns:xlink="http://www.w3.org/1999/xlink" x="0px" y="0px"
	 viewBox="0 0 31 31" style="enable-background:new 0 0 31 31;" xml:space="preserve">
<style type="text/css">
	.st0{fill:#FFFFFF;}
	.st1{opacity:0;fill:#FFFFFF;}
</style>
<g>
	<path class="st0" d="M8.3,22.7c-1.9-1.9-3-4.5-3-7.2H2.4c0,3.5,1.4,6.8,3.8,9.3c2.5,2.5,5.8,3.8,9.3,3.8v-2.9
		C12.8,25.7,10.2,24.6,8.3,22.7z"/>
	<path class="st1" d="M8.3,8.3c1.9-1.9,4.5-3,7.2-3s5.3,1.1,7.2,3c1.6,1.6,2.6,3.7,2.9,5.9h2.9c-0.3-3-1.6-5.8-3.8-7.9
		c-2.5-2.5-5.8-3.8-9.3-3.8S8.7,3.8,6.2,6.2S2.4,12,2.4,15.5h2.9C5.3,12.8,6.4,10.2,8.3,8.3z"/>
	<path class="st1" d="M28.6,15.5h-2.9c0,2.7-1.1,5.3-3,7.2c-1.9,1.9-4.5,3-7.2,3v2.9c3.5,0,6.8-1.4,9.3-3.8
		C27.2,22.3,28.6,19,28.6,15.5z"/>
	<path class="st1" d="M28.6,15.5c0-0.5,0-0.9-0.1-1.4h-2.9c0.1,0.4,0.1,0.9,0.1,1.4"/>
</g>
</svg>
