<svg width="200" height="275" viewBox="0 0 200 275" fill="none" xmlns="http://www.w3.org/2000/svg">
<path d="M194.927 0.87201C190.731 0.87201 186.359 7.24491 184.164 10.2366C180.623 15.2287 177.455 22.3983 170.409 22.7169C152.034 23.8056 133.682 20.2375 117.054 12.3432C109.796 8.80273 103.493 3.93454 95.4388 2.39442C86.6002 1.01127 77.645 0.519031 68.708 0.925117C54.546 1.10214 40.5433 0.712687 26.4521 0.925117C29.2668 0.925117 34.1527 4.74886 37.0737 5.65169C40.9318 6.83846 44.8725 7.73784 48.8635 8.34247C56.8297 9.51083 64.7958 8.96206 72.7973 9.08597C90.075 9.38692 100.856 20.8227 115.797 27.0186C134.349 34.7015 158.69 37.7463 172.905 53.0236C177.508 57.9626 180.128 64.1939 183.951 69.664C188.495 76.1549 193.168 82.5455 197.972 88.8358C198.432 89.4377 199.176 90.0395 199.636 90.606V0.87201H194.927ZM98.2535 198.308C93.3499 198.644 88.4463 199.282 83.525 199.6H165.293C167.47 199.37 169.648 198.821 171.843 198.609C180.871 197.742 190.377 196.485 199.6 195.865V187.209C172.409 191.351 144.811 194.626 117.408 196.91C111.017 197.441 104.644 197.883 98.2535 198.308ZM11.6351 63.769C7.19529 58.8205 3.53062 53.228 0.765808 47.1818V74.5499C0.765808 76.3201 5.98805 81.0113 7.10331 82.7815C9.21658 86.024 11.1491 89.3808 12.892 92.8365C16.2414 99.3199 18.144 106.453 18.4683 113.743C18.6453 121.444 16.3263 129.233 14.5915 136.756C12.5256 145.74 9.97266 154.604 6.94398 163.31C2.97862 174.728 -0.98674 187.014 1.82796 199.388C1.98728 200.096 21.6548 199.494 23.6552 199.193C23.6552 198.379 23.3542 197.423 23.2657 196.662C22.5399 189.315 25.8503 181.986 27.0363 174.746C31.1079 149.715 28.541 123.409 39.1803 99.7582C40.7912 96.2177 42.7208 92.394 41.8533 88.5702C41.1098 85.2422 38.3128 82.7638 35.622 80.7634C29.3554 76.2316 22.1681 73.0628 16.1493 68.1769C14.5425 66.8598 13.0502 65.4089 11.6883 63.8398" fill="white"/>
<path d="M58.2636 109.441C61.5385 103.352 66.4244 99.2802 71.2926 94.4474C77.4489 88.3922 83.1415 81.8829 88.3224 74.9747C92.748 68.9558 96.2708 58.175 102.838 54.2981C110.751 49.6247 127.48 53.2714 135.092 57.1836C142.386 60.9543 147.484 67.8051 152.459 74.3197C166.621 92.9427 181.296 111.353 199.423 126.029C200.627 118.682 194.856 112.309 189.652 106.998C182.513 100.052 175.997 92.494 170.179 84.4101C164.231 75.789 159.557 66.1765 151.91 58.9893C143.607 51.1471 132.897 46.9516 122.347 43.057C114.233 40.1406 106.279 36.796 98.5191 33.0374C90.8716 29.3022 83.6135 24.8766 75.3642 22.5398C66.9776 20.4433 58.3895 19.2563 49.7486 18.9993C41.6763 18.4859 33.5863 16.2731 25.5493 16.2908C23.6038 16.2094 21.6617 16.5183 19.8375 17.1994C18.0133 17.8804 16.344 18.9198 14.9278 20.2562C10.6261 24.8766 11.3873 32.2585 13.5824 38.1711C16.7373 47.1836 23.1543 54.6869 31.5682 59.2017C40.4194 63.5742 50.1912 61.4145 59.2372 59.2017C64.9905 57.7678 75.7713 57.697 76.4263 66.0349C76.4946 67.9027 76.1564 69.763 75.435 71.4873C70.7615 84.3039 58.4406 92.1992 52.4217 104.29C45.9792 117.218 42.7257 131.501 42.9332 145.944C42.9978 156.109 45.9309 166.05 51.395 174.622C52.6608 176.551 54.1992 178.286 55.9622 179.774C60.348 183.61 65.4 186.61 70.8677 188.625C78.7808 191.262 87.2957 191.546 95.6512 191.634C111.299 191.544 126.912 190.165 142.333 187.51C150.051 186.341 157.876 185.314 165.541 183.81C172.622 182.429 179.897 182.199 187.014 180.906C191.174 180.163 195.582 179.242 199.671 178.198V173.135L199.37 173.224C179.048 179.791 157.061 180.305 135.907 183.296C124.736 184.872 113.495 187.155 102.272 187.386C91.0486 187.616 79.2587 185.615 69.7879 179.296C58.2459 171.56 51.3773 157.876 50.3151 143.997C49.9713 138.93 50.3047 133.84 51.3065 128.861C52.6977 122.097 55.0839 115.576 58.3875 109.512L58.2636 109.441ZM60.1577 41.1098C58.6884 42.3312 50.0673 50.7576 40.685 51.271C30.0635 51.8552 18.0789 40.4725 21.6548 29.1606C22.3567 27.0248 23.8451 25.2362 25.8178 24.1578C27.7904 23.0794 30.0995 22.7921 32.2763 23.3541C36.6134 24.4694 40.9682 25.3014 45.3584 26.0626L50.3151 26.8769C54.7054 27.6027 60.7242 28.24 64.2647 31.1963C68.5664 34.7369 61.5739 39.8706 60.1223 41.1098" fill="white"/>
<path d="M197.069 147.13C193.814 138.994 188.949 131.6 182.765 125.392C177.61 119.992 172.021 115.025 166.054 110.539C160.301 106.29 155.185 101.422 149.626 96.9259C146.034 93.8124 141.883 91.4095 137.394 89.8449C131.747 88.0746 125.675 88.287 119.691 88.5172C113.708 88.7473 107.512 88.9951 101.989 91.2965C94.0049 94.6068 87.455 101.918 81.2237 107.671C74.9924 113.425 69.4692 120.063 67.0617 128.489C64.2843 137.463 64.7607 147.129 68.4071 155.787C72.3016 164.266 80.0022 170.639 87.5258 175.791C92.5706 179.119 98.6662 180.467 104.644 179.579C118.204 178.18 131.764 176.746 145.36 175.136C152.105 174.339 159.132 173.365 165.983 172.533C172.303 171.701 179.242 171.365 184.854 168.019C193.015 163.169 200.893 156.973 197.122 147.219L197.069 147.13ZM141.996 172.144C130.543 172.905 118.983 172.923 107.494 173.33C102.396 173.507 97.0674 173.719 92.4471 171.56C89.0297 169.732 86.0609 167.169 83.7552 164.054C77.4 156.3 72.3724 146.546 73.5939 136.579C74.9216 125.657 83.4011 116.912 91.6328 110.451C100.59 103.37 111.106 97.156 122.736 96.8374C130.392 96.8586 137.91 98.8784 144.546 102.697C151.156 106.495 157.37 110.942 163.098 115.974C171.383 122.842 179.632 130.03 185.35 139.129C188.43 144.015 190.767 149.998 188.89 155.486C186.66 162.337 179.065 165.7 172.126 167.559C162.229 170.083 152.107 171.625 141.908 172.162" fill="white"/>
<path d="M170.037 145.944C168.001 133.216 158.619 129.693 150.051 123.072C145.201 119.337 140.474 115.071 134.367 113.619C121.692 110.539 107.547 123.072 100.466 132.331C98.2857 134.908 96.7813 137.987 96.089 141.291C95.3967 144.595 95.5383 148.019 96.501 151.255C100.201 163.116 112.008 166.32 133.676 165.134C155.344 163.948 172.055 158.619 170.037 145.891V145.944ZM133.871 159.947C122.046 160.584 111.92 156.92 109.459 150.352C107.122 144.174 112.292 139.288 116.912 135.978C121.957 132.437 127.533 127.374 133.712 126.046C141.695 125.197 152.848 136.119 156.53 143.979C160.212 151.839 145.696 159.327 133.871 159.911" fill="white"/>
<path d="M1.88108 252C2.58231 250.117 3.52232 248.332 4.67807 246.689C7.33345 242.989 12.4849 241.184 16.9105 241.184C20.1501 241.184 25.3546 241.644 27.3904 244.582C29.1088 246.785 30.0877 249.474 30.1874 252.265C30.2158 253.666 29.8343 255.044 29.0898 256.231C28.4513 257.378 27.5657 258.368 26.4972 259.13C25.4286 259.893 24.2039 260.408 22.9117 260.639C21.1039 260.941 19.2744 261.095 17.4416 261.099C16.0312 261.082 14.6235 260.97 13.2284 260.763C11.5644 260.532 9.95342 260.249 8.3956 259.895C8.49432 260.906 8.74497 261.897 9.13911 262.834C9.45976 263.657 9.94807 264.404 10.573 265.029C11.44 265.889 12.5222 266.5 13.7064 266.799C15.0871 267.075 16.494 267.2 17.9019 267.171C19.6251 267.186 21.336 266.88 22.9471 266.268C23.9369 265.879 24.9829 265.652 26.045 265.595C26.4523 265.569 26.8603 265.633 27.2399 265.783C27.6195 265.933 27.9611 266.165 28.2401 266.463C28.754 267.089 29.0187 267.884 28.9836 268.693C28.9479 269.36 28.7245 270.003 28.3393 270.548C27.954 271.093 27.4226 271.518 26.8062 271.774C25.2302 272.616 23.5349 273.213 21.7787 273.544C20.2769 273.87 18.7477 274.053 17.2115 274.093C14.8687 274.095 12.5458 273.662 10.3606 272.818C8.28735 272.047 6.40386 270.839 4.8374 269.277C3.57689 267.775 2.60466 266.052 1.96959 264.197C0.570601 260.264 0.570601 255.968 1.96959 252.035L1.88108 252ZM14.0427 248.265C13.0195 248.646 12.0943 249.251 11.3342 250.035C10.6616 250.735 10.0679 251.507 9.56397 252.336C9.18509 253.08 8.9622 253.893 8.90898 254.726C11.4949 255.244 14.1342 255.446 16.7689 255.328C18.4951 255.416 20.2163 255.076 21.7787 254.337C22.2874 254.121 22.7241 253.766 23.0377 253.311C23.3512 252.856 23.5286 252.322 23.549 251.77C23.4975 251.165 23.2913 250.583 22.9503 250.081C22.6093 249.579 22.1449 249.173 21.6017 248.902C20.3703 248.078 18.9234 247.634 17.4416 247.627C16.3024 247.633 15.1741 247.849 14.1135 248.265" fill="white"/>
<path d="M85.7378 251.292C86.2335 249.026 86.6407 247.309 86.9416 246.158C87.2176 245.148 87.6475 244.187 88.2162 243.308C88.5919 242.632 89.0901 242.031 89.6855 241.538C90.0868 241.232 90.5794 241.069 91.084 241.077C93.704 241.077 94.9963 242.086 94.9963 244.087C94.8212 246.016 94.4171 247.918 93.7925 249.752C91.1371 257.812 89.2252 264.049 88.0569 268.463C87.6593 270.023 86.8597 271.451 85.7378 272.605C85.1893 273.112 84.5446 273.502 83.8422 273.755C83.1398 274.007 82.3938 274.116 81.6486 274.075C80.6537 274.013 79.7211 273.569 79.0463 272.836C78.1736 271.985 77.4707 270.975 76.9751 269.862L76.1431 267.826C74.7269 264.285 73.6824 261.506 73.0097 259.559C72.391 257.837 71.9463 256.058 71.6821 254.248L71.0094 256.673C69.8292 260.993 68.5723 265.017 67.2387 268.746C66.7968 270.301 65.9615 271.716 64.8135 272.853C63.7867 273.717 62.4712 274.159 61.1314 274.092C60.2946 274.115 59.4679 273.906 58.7415 273.491C57.9555 272.969 57.3011 272.272 56.8296 271.455C55.8577 269.781 55.0854 267.998 54.5283 266.144C52.7581 260.639 50.9878 255.045 49.5716 249.433C49.139 247.889 48.8662 246.306 48.7573 244.706C48.6988 243.801 48.9903 242.907 49.5716 242.21C49.8889 241.897 50.2692 241.654 50.6873 241.498C51.1054 241.343 51.5517 241.278 51.9969 241.307C53.0188 241.205 54.042 241.489 54.8647 242.104C55.9471 243.356 56.6096 244.917 56.7588 246.565C57.6971 250.814 58.7061 255.027 59.6975 259.275C59.786 259.824 60.0869 261.046 60.6003 262.816L61.2022 264.993C62.2997 262.639 63.238 260.373 63.9992 258.213C64.8489 255.77 65.6101 253.292 66.3182 250.796L67.1148 248.017C67.2884 246.984 67.5795 245.974 67.9822 245.007C68.4833 244.154 69.077 243.358 69.7525 242.635C69.9333 242.404 70.1607 242.214 70.42 242.077C70.6792 241.939 70.9645 241.858 71.2572 241.838C72.2105 241.821 73.1369 242.155 73.8595 242.777C74.5811 243.396 75.1352 244.188 75.4704 245.078C76.0192 246.848 76.5679 248.619 77.0636 250.389C77.2583 251.044 77.7363 252.619 78.4621 255.098C79.1879 257.576 79.8606 259.7 80.4625 261.4C80.8641 262.649 81.3674 263.862 81.9672 265.029L84.835 255.824C85.136 254.708 85.4723 253.204 85.8264 251.292" fill="white"/>
<path d="M111.336 247.857C111.181 247.705 111.06 247.523 110.977 247.322C110.895 247.121 110.855 246.906 110.858 246.689C110.858 243.839 114.009 242.157 116.593 242.157C118.287 242.084 119.949 242.632 121.267 243.697C121.873 244.257 122.346 244.944 122.652 245.71C122.958 246.476 123.09 247.3 123.037 248.123C123.037 248.672 122.931 249.893 122.736 251.663C122.329 255.983 122.081 261.028 123.869 265.1C124.232 265.818 124.815 266.401 125.533 266.764C126.154 267.123 126.852 267.329 127.569 267.365C128.795 267.423 130.015 267.161 131.109 266.604C132.209 265.954 133.206 265.142 134.066 264.197C135.076 263.144 135.791 261.843 136.137 260.426C136.81 256.99 137.166 253.5 137.199 249.999C137.305 247.468 136.668 244.246 138.438 242.122C138.739 241.761 139.12 241.474 139.549 241.284C139.979 241.094 140.447 241.005 140.917 241.024C141.646 241.056 142.36 241.25 143.005 241.591C143.654 241.846 144.197 242.314 144.546 242.918C144.907 243.692 145.065 244.545 145.006 245.397C145.006 247.804 144.315 250.3 144.227 252.743C143.913 256.353 144.201 259.99 145.077 263.506C145.343 264.362 145.699 265.186 146.139 265.967C146.512 266.688 146.938 267.38 147.413 268.038C148.422 269.153 149.077 269.915 149.378 270.34C149.654 270.702 149.808 271.141 149.821 271.596C149.822 271.938 149.744 272.276 149.593 272.583C149.443 272.889 149.224 273.158 148.954 273.367C148.485 273.846 147.853 274.131 147.183 274.163C145.389 274.158 143.668 273.453 142.386 272.198C140.976 270.851 139.939 269.162 139.376 267.295C137.917 268.999 136.324 270.585 134.614 272.039C133.494 272.794 132.238 273.323 130.915 273.597C128.874 274.172 126.716 274.188 124.666 273.643C122.617 273.098 120.752 272.012 119.266 270.499C115.106 266.126 115.584 260.231 116.062 254.69C116.204 252.92 116.275 251.15 116.275 249.698C116.279 249.487 116.239 249.276 116.157 249.081C116.074 248.886 115.952 248.71 115.797 248.565C115.502 248.281 115.109 248.122 114.699 248.123C114.354 248.128 114.011 248.163 113.672 248.229C113.289 248.316 112.897 248.358 112.504 248.353C112.087 248.34 111.692 248.161 111.406 247.857H111.336ZM132.03 222.348C132.247 222.467 132.454 222.603 132.649 222.755C133.621 223.755 134.509 224.833 135.305 225.977C136.385 227.081 137.571 228.077 138.845 228.951C139.943 229.765 140.509 230.562 140.509 231.376C140.492 231.636 140.422 231.889 140.303 232.12C140.184 232.351 140.02 232.556 139.819 232.722C139.619 232.94 139.376 233.115 139.104 233.233C138.833 233.352 138.54 233.413 138.244 233.412C136.535 233.401 134.887 232.772 133.605 231.642C132.041 230.289 130.655 228.742 129.481 227.039C128.313 228.664 126.918 230.112 125.338 231.341C124.047 232.515 122.404 233.231 120.665 233.377C120.339 233.417 120.008 233.379 119.7 233.265C119.392 233.151 119.116 232.964 118.895 232.722C118.557 232.341 118.368 231.85 118.364 231.341C118.364 230.049 120.134 228.65 120.966 227.8C122.429 226.591 123.79 225.265 125.037 223.835C125.49 223.287 126.028 222.815 126.631 222.437C127.442 222.011 128.354 221.815 129.268 221.87C130.199 221.83 131.124 222.025 131.959 222.437" fill="white"/>
<path d="M192.873 273.278C191.702 272.497 190.702 271.485 189.935 270.304C188.223 271.665 186.226 272.621 184.093 273.101C181.918 273.744 179.669 274.101 177.401 274.163C173.436 274.163 169.17 272.269 167.683 268.304C167.026 266.298 167.03 264.135 167.692 262.131C168.355 260.127 169.642 258.388 171.365 257.169C172.91 256.155 174.607 255.396 176.392 254.921C178.114 254.392 179.902 254.112 181.703 254.089C184.137 254.058 186.567 254.308 188.943 254.832C189.063 253.805 188.947 252.764 188.603 251.788C188.259 250.813 187.698 249.929 186.961 249.203C183.845 246.813 178.216 246.937 175.755 250.159C175.327 250.544 174.82 250.83 174.27 250.998C173.719 251.166 173.139 251.212 172.569 251.132C172.208 251.148 171.851 251.062 171.538 250.883C171.225 250.705 170.968 250.441 170.798 250.123C167.541 244.228 177.26 241.095 181.42 241.095C183.189 241.148 184.941 241.452 186.624 241.998C188.399 242.486 190.063 243.309 191.528 244.423C193.01 245.686 194.215 247.241 195.069 248.99C195.907 250.766 196.331 252.709 196.308 254.673C196.308 255.328 196.308 256.319 196.166 257.629C196.024 258.939 196.007 260.373 196.007 261.329C195.995 261.921 195.947 262.513 195.865 263.099C195.769 263.851 195.716 264.607 195.706 265.365C195.725 266.035 195.934 266.686 196.308 267.242C196.734 267.87 197.304 268.386 197.972 268.746C198.501 268.995 198.949 269.387 199.264 269.879C199.548 270.405 199.638 271.015 199.518 271.6C199.398 272.186 199.077 272.711 198.609 273.084C198.41 273.382 198.148 273.635 197.843 273.824C197.538 274.014 197.195 274.135 196.839 274.181C195.482 274.26 194.128 273.985 192.909 273.384L192.873 273.278ZM176.534 260.904C175.819 261.292 175.228 261.872 174.827 262.58C174.427 263.287 174.233 264.093 174.268 264.905C174.276 265.78 174.617 266.619 175.223 267.25C175.828 267.882 176.652 268.259 177.525 268.304C181.289 268.24 184.963 267.144 188.147 265.135C188.44 264.025 188.595 262.884 188.607 261.736C188.574 261.306 188.574 260.874 188.607 260.444C186.268 260.033 183.901 259.808 181.526 259.771C179.766 259.736 178.022 260.105 176.428 260.851H176.322" fill="white"/>
</svg>
