<svg width="121" height="33" viewBox="0 0 121 33" fill="none" xmlns="http://www.w3.org/2000/svg">
<path d="M0.589362 18.9047C1.01953 17.7883 1.59619 16.7298 2.30518 15.7553C3.93413 13.5612 7.09429 12.4904 9.8092 12.4904C11.7965 12.4904 14.9893 12.7633 16.2381 14.506C17.2922 15.8121 17.8927 17.4067 17.9539 19.0622C17.9713 19.8928 17.7373 20.7101 17.2806 21.4138C16.8889 22.0939 16.3457 22.6813 15.6901 23.1335C15.0346 23.5856 14.2833 23.8911 13.4906 24.0279C12.3816 24.2071 11.2594 24.2984 10.135 24.3008C9.26978 24.291 8.40625 24.2244 7.55039 24.1013C6.52959 23.9649 5.54136 23.7969 4.58571 23.5869C4.64627 24.1867 4.80003 24.7742 5.04182 25.3296C5.23852 25.8178 5.53807 26.2611 5.92145 26.6314C6.4533 27.1415 7.11716 27.5041 7.8436 27.6812C8.69065 27.8451 9.55368 27.919 10.4173 27.9017C11.4744 27.9105 12.524 27.729 13.5123 27.3663C14.1195 27.1354 14.7612 27.0007 15.4128 26.9673C15.6626 26.9516 15.9129 26.9895 16.1458 27.0785C16.3786 27.1674 16.5882 27.3052 16.7594 27.4818C17.0746 27.8534 17.237 28.3244 17.2155 28.8045C17.1936 29.1998 17.0565 29.581 16.8202 29.9042C16.5839 30.2274 16.2578 30.4794 15.8797 30.6312C14.9129 31.1308 13.8729 31.4848 12.7956 31.681C11.8743 31.8743 10.9362 31.9833 9.99381 32.0065C8.55664 32.0077 7.13168 31.7514 5.79113 31.2506C4.5193 30.7932 3.36387 30.0772 2.40292 29.151C1.62966 28.2599 1.03325 27.2384 0.64366 26.138C-0.214553 23.8055 -0.214553 21.2582 0.64366 18.9257L0.589362 18.9047ZM8.04994 16.6896C7.42227 16.9158 6.85466 17.2745 6.38841 17.7394C5.97577 18.1545 5.61159 18.6122 5.30245 19.1042C5.07003 19.5452 4.93329 20.0275 4.90064 20.5215C6.48701 20.8286 8.10608 20.9485 9.72232 20.8784C10.7813 20.9309 11.8371 20.7289 12.7956 20.2905C13.1076 20.1629 13.3756 19.9519 13.5679 19.6823C13.7603 19.4127 13.8691 19.0956 13.8816 18.7683C13.85 18.4096 13.7235 18.0647 13.5143 17.7669C13.3051 17.4691 13.0202 17.2283 12.687 17.0676C11.9316 16.5787 11.044 16.3158 10.135 16.3117C9.43617 16.3149 8.744 16.4431 8.09338 16.6896" fill="#C68630"/>
<path d="M51.3609 17.9881C51.6621 16.5953 51.9095 15.5399 52.0924 14.8326C52.2601 14.212 52.5214 13.6211 52.8669 13.0809C53.0952 12.6653 53.398 12.2963 53.7598 11.9928C54.0037 11.8047 54.303 11.705 54.6096 11.7099C56.2018 11.7099 56.9871 12.3301 56.9871 13.5596C56.8807 14.7455 56.6351 15.9143 56.2556 17.0414C54.6419 21.9958 53.4801 25.8294 52.7701 28.5424C52.5285 29.5011 52.0426 30.379 51.3609 31.0885C51.0275 31.3995 50.6358 31.6398 50.2089 31.7949C49.7821 31.95 49.3288 32.0169 48.8759 31.9916C48.2713 31.9538 47.7046 31.6808 47.2945 31.2299C46.7642 30.7068 46.337 30.0865 46.0359 29.4019L45.5303 28.1507C44.6697 25.9745 44.035 24.2662 43.6262 23.0694C43.2502 22.0112 42.9799 20.9177 42.8194 19.8051L42.4106 21.2958C41.6934 23.9507 40.9296 26.4242 40.1192 28.7165C39.8507 29.6721 39.3431 30.5415 38.6454 31.2408C38.0215 31.7714 37.2221 32.0435 36.4079 32.0024C35.8994 32.0161 35.397 31.8881 34.9556 31.6325C34.478 31.3118 34.0803 30.8835 33.7938 30.3812C33.2032 29.3521 32.7338 28.2566 32.3953 27.117C31.3195 23.7331 30.2438 20.2948 29.3832 16.8456C29.1203 15.8969 28.9545 14.9234 28.8883 13.9404C28.8528 13.3838 29.0299 12.8346 29.3832 12.4063C29.576 12.2135 29.8071 12.0644 30.0611 11.9687C30.3152 11.873 30.5865 11.833 30.857 11.8513C31.478 11.7884 32.0997 11.9631 32.5997 12.341C33.2575 13.1107 33.66 14.0696 33.7507 15.0829C34.3209 17.6943 34.9341 20.2839 35.5365 22.8953C35.5903 23.2326 35.7732 23.9833 36.0851 25.0714L36.4509 26.4097C37.1179 24.9626 37.688 23.5699 38.1506 22.2424C38.6669 20.7409 39.1295 19.2176 39.5598 17.6834L40.0439 15.9751C40.1494 15.3403 40.3263 14.7197 40.571 14.1254C40.8755 13.6009 41.2363 13.1119 41.6468 12.6674C41.7567 12.5254 41.8949 12.4084 42.0524 12.3241C42.21 12.2397 42.3833 12.1898 42.5612 12.1777C43.1405 12.1668 43.7035 12.3721 44.1425 12.7544C44.5811 13.1353 44.9178 13.6218 45.1215 14.1689C45.455 15.257 45.7885 16.3451 46.0897 17.4331C46.208 17.8357 46.4985 18.8041 46.9395 20.3274C47.3806 21.8507 47.7894 23.1564 48.1551 24.201C48.3992 24.9685 48.705 25.7145 49.0695 26.4315L50.8122 20.7735C50.9951 20.088 51.1995 19.1632 51.4147 17.9881" fill="#C68630"/>
<path d="M67.4229 15.9085C67.3302 15.8152 67.257 15.7037 67.2076 15.5809C67.1582 15.458 67.1337 15.3263 67.1356 15.1935C67.1356 13.4494 69.0296 12.4203 70.583 12.4203C71.6009 12.3755 72.5998 12.7107 73.3921 13.3627C73.7562 13.7051 74.0407 14.1259 74.2247 14.5944C74.4088 15.063 74.4879 15.5674 74.4561 16.071C74.4561 16.4068 74.3923 17.1543 74.2752 18.2376C74.0305 20.8809 73.8815 23.9683 74.9562 26.4599C75.1744 26.8993 75.5248 27.2561 75.9564 27.4782C76.3299 27.6979 76.7492 27.8241 77.18 27.8466C77.917 27.8817 78.6504 27.7212 79.3081 27.3807C79.9693 26.9827 80.5683 26.4861 81.085 25.9074C81.6923 25.2633 82.1218 24.4673 82.3299 23.6C82.7345 21.4975 82.9482 19.3616 82.9683 17.2193C83.0322 15.6702 82.6491 13.6986 83.7131 12.3986C83.8942 12.1778 84.1227 12.0023 84.381 11.8859C84.6393 11.7694 84.9205 11.715 85.2028 11.7269C85.6413 11.7466 86.0701 11.865 86.4583 12.0736C86.8483 12.2299 87.1747 12.5164 87.3841 12.8861C87.6013 13.3595 87.6965 13.8814 87.6607 14.4027C87.6607 15.876 87.2457 17.4035 87.1925 18.8984C87.0041 21.1076 87.1767 23.3333 87.7033 25.485C87.8636 26.0083 88.0776 26.513 88.3417 26.9907C88.5662 27.4318 88.8223 27.8554 89.1078 28.2582C89.7143 28.9407 90.108 29.4065 90.2888 29.6665C90.4543 29.8883 90.5473 30.1573 90.5549 30.4357C90.5553 30.6448 90.5085 30.8513 90.4181 31.0391C90.3277 31.227 90.1961 31.3911 90.0335 31.519C89.7519 31.8124 89.3718 31.9865 88.9695 32.0065C87.8911 32.0033 86.8566 31.5719 86.0859 30.804C85.2387 29.9795 84.6155 28.9457 84.2771 27.8032C83.3996 28.8462 82.4425 29.817 81.4149 30.7065C80.7416 31.1686 79.9862 31.4925 79.191 31.6598C77.9643 32.012 76.6671 32.0218 75.4353 31.6882C74.2036 31.3547 73.0826 30.6901 72.1897 29.764C69.6893 27.0882 69.9765 23.4808 70.2638 20.0901C70.349 19.0068 70.3915 17.9235 70.3915 17.0351C70.3943 16.9055 70.3701 16.7767 70.3206 16.6572C70.2711 16.5378 70.1974 16.4303 70.1042 16.3418C69.9273 16.1677 69.6906 16.0706 69.4445 16.071C69.2373 16.0739 69.0308 16.0956 68.8274 16.136C68.597 16.1891 68.3613 16.2146 68.1251 16.2118C67.8745 16.2037 67.6372 16.0946 67.4654 15.9085H67.4229ZM79.8614 0.29805C79.9918 0.370931 80.1163 0.454243 80.2338 0.547206C80.8175 1.1592 81.3513 1.81859 81.8298 2.51883C82.4792 3.19464 83.192 3.80419 83.9579 4.33878C84.6176 4.8371 84.9581 5.32459 84.9581 5.82291C84.9475 5.98166 84.9053 6.13655 84.8339 6.27811C84.7626 6.41967 84.6636 6.54494 84.5431 6.64623C84.4229 6.77999 84.2766 6.88667 84.1135 6.95943C83.9504 7.03219 83.7742 7.06942 83.5961 7.06872C82.5689 7.06196 81.5788 6.6772 80.8084 5.98541C79.8679 5.15753 79.0347 4.21104 78.3292 3.16881C77.6271 4.16298 76.7886 5.04949 75.8393 5.80125C75.0632 6.51993 74.0758 6.95783 73.0303 7.04705C72.8344 7.07174 72.6355 7.04823 72.4504 6.97849C72.2652 6.90874 72.0992 6.79481 71.9663 6.64623C71.763 6.41313 71.6496 6.11294 71.6471 5.80125C71.6471 5.01044 72.7111 4.15463 73.2112 3.63464C74.0904 2.89483 74.9088 2.08327 75.6585 1.20802C75.9307 0.872499 76.254 0.583571 76.6161 0.352218C77.1037 0.0917677 77.6519 -0.028109 78.2015 0.00555197C78.7606 -0.0190891 79.3169 0.100143 79.8188 0.352218" fill="#C68630"/>
<path d="M116.964 31.4664C116.257 31.006 115.654 30.4092 115.192 29.7128C114.161 30.5153 112.957 31.079 111.671 31.362C110.36 31.7411 109.004 31.9516 107.637 31.9883C105.247 31.9883 102.675 30.8714 101.779 28.5333C101.383 27.3506 101.385 26.075 101.785 24.8936C102.184 23.7121 102.96 22.6868 103.999 21.9679C104.93 21.3702 105.953 20.9227 107.029 20.6423C108.067 20.3305 109.145 20.1653 110.23 20.1517C111.697 20.1337 113.162 20.2808 114.595 20.5901C114.667 19.9844 114.596 19.3706 114.389 18.7954C114.182 18.2202 113.844 17.6988 113.399 17.2709C111.521 15.8618 108.128 15.9348 106.645 17.8345C106.387 18.0614 106.081 18.2303 105.749 18.3295C105.418 18.4287 105.068 18.4557 104.724 18.4086C104.507 18.418 104.292 18.3671 104.103 18.2618C103.914 18.1565 103.76 18.0012 103.657 17.8137C101.694 14.3379 107.552 12.4904 110.06 12.4904C111.126 12.5215 112.182 12.7007 113.197 13.0227C114.266 13.3106 115.27 13.796 116.153 14.4527C117.046 15.1973 117.772 16.114 118.287 17.1456C118.792 18.1927 119.047 19.3384 119.034 20.4962C119.034 20.8824 119.034 21.4669 118.948 22.2393C118.863 23.0117 118.852 23.8572 118.852 24.4208C118.845 24.7701 118.816 25.1186 118.767 25.4646C118.709 25.9078 118.677 26.3539 118.671 26.8007C118.682 27.1956 118.808 27.5793 119.034 27.9071C119.29 28.2773 119.634 28.5816 120.037 28.7943C120.356 28.9406 120.626 29.1722 120.816 29.4623C120.987 29.7725 121.041 30.1317 120.969 30.477C120.897 30.8224 120.703 31.1319 120.421 31.3516C120.301 31.5278 120.143 31.6767 119.959 31.7883C119.775 31.9 119.569 31.9717 119.354 31.9987C118.536 32.0451 117.72 31.8833 116.985 31.529L116.964 31.4664ZM107.114 24.1703C106.684 24.3988 106.327 24.7411 106.086 25.1582C105.844 25.5753 105.727 26.0504 105.749 26.5293C105.753 27.0451 105.959 27.5397 106.324 27.9122C106.689 28.2846 107.185 28.5068 107.712 28.5333C109.981 28.4958 112.195 27.8495 114.114 26.665C114.291 26.0107 114.384 25.3376 114.392 24.6609C114.372 24.4073 114.372 24.1525 114.392 23.8989C112.982 23.6565 111.555 23.5239 110.124 23.5023C109.063 23.4815 108.011 23.6993 107.05 24.139H106.986" fill="#C68630"/>
</svg>
