<svg width="39" height="36" viewBox="0 0 39 36" fill="none" xmlns="http://www.w3.org/2000/svg">
<path d="M10.71 20.4169L16.37 14.7569L3.75421 2.14109C2.97316 1.36004 1.67885 1.35179 1.11523 2.30174C-0.705215 5.37001 -0.29696 9.39991 2.34 12.0369L10.71 20.4169ZM24.28 16.7869C27.33 18.2169 31.64 17.2069 34.82 14.0269C38.65 10.1969 39.38 4.72687 36.45 1.79687C33.51 -1.13313 28.03 -0.403127 24.21 3.42687C21.03 6.60687 20.03 10.9169 21.45 13.9669C17.8324 17.5764 7.18953 28.2177 3.3346 32.0723C2.55308 32.8538 2.55352 34.1204 3.335 34.9019C4.11648 35.6834 5.38352 35.6834 6.165 34.9019L18.51 22.5569L30.855 34.9019C31.6365 35.6834 32.9035 35.6834 33.685 34.9019C34.4665 34.1204 34.4665 32.8534 33.685 32.0719L21.34 19.7269L24.28 16.7869Z" fill="#C6C6C6"/>
</svg>
