<svg xmlns="http://www.w3.org/2000/svg" xmlns:xlink="http://www.w3.org/1999/xlink" viewBox="0 0 1000 1026.68"><defs><style>.cls-1{fill:none;}.cls-2{fill:#006b67;}.cls-3{clip-path:url(#clip-path);}.cls-4,.cls-5,.cls-6{fill:#fff;}.cls-5{font-size:113.96px;font-family:ArimaMadurai-Medium, Arima Madurai;font-weight:500;}.cls-6{font-size:168.65px;font-family:Itim-Regular, Itim;}</style><clipPath id="clip-path"><circle class="cls-1" cx="500" cy="500" r="324.07"/></clipPath></defs><title>Ativo 3</title><g id="Camada_2" data-name="Camada 2"><g id="Camada_1-2" data-name="Camada 1"><circle class="cls-2" cx="500" cy="500" r="500"/><g class="cls-3"><path class="cls-4" d="M823.94,160.23c-14.34,0-29.33,21.78-36.79,32C774.69,209.29,764.2,233.8,740.09,235c-62.23,3-126.39-7.78-182.52-35.53-24.82-12.27-46.39-28.75-73.9-34-30.09-5.75-60.94-5.37-91.44-5-48.18.56-96.37-.74-144.55-.17,9.66-.12,26.35,13.06,36.13,16.11a267,267,0,0,0,40.38,9.21c27.22,4,54.53,2.12,81.86,2.58,59.05,1,95.93,40.14,147.05,61.32,63.43,26.28,146.7,36.69,195.35,89,15.7,16.88,24.69,38.17,37.79,56.91q23.26,33.29,47.94,65.55c1.57,2.05,4.12,4.1,5.7,6.14V160.23ZM493.3,835.53c-16.79,1.12-33.6,3.29-50.4,4.39H722.59c7.45-.79,14.91-2.65,22.36-3.37,30.88-3,63.45-7.31,95-9.42V797.52c-93,14.18-187.43,25.37-281.16,33.18C537,832.51,515.13,834.07,493.3,835.53ZM197,375.16c-14.47-16.55-28.52-36.89-36.91-56.56v93.59c0,6.15,17.87,22.11,21.68,28.17a357.79,357.79,0,0,1,19.53,34.55c10.83,22.33,18.41,46.34,19,71.33.6,26.35-7.36,53-13.26,78.53a882.21,882.21,0,0,1-26.17,90.62c-13.58,39-27.13,81.07-17.52,123.37.56,2.46,67.86.39,74.7-.62-.16-2.81-1.06-5.76-1.35-8.69-2.5-25.15,8.84-50.18,12.87-74.93,14-85.64,5.19-175.54,41.58-256.51,5.48-12.19,12.06-25.22,9.12-38.25-2.56-11.38-11.86-19.9-21.3-26.72-21.47-15.49-46-26.36-66.67-43.06A123.48,123.48,0,0,1,197,375.16Z"/><path class="cls-4" d="M356.52,531.56c11.19-20.87,27.91-34.74,44.52-51.31,20.55-20.51,40.81-42.89,58.27-66.64,15.13-20.59,27.19-57.47,49.63-70.73,27.07-16,84.33-3.53,110.34,9.9,24.92,12.86,42.49,36.18,59.41,58.58C726.82,475.09,777.28,538,839.32,588.24c4.14-25.11-15.61-47.14-33.43-65.26-23.84-24.23-47-49.32-66.32-77.31-20.3-29.45-36.51-62.34-62.48-86.92-28.36-26.85-65-41.16-101.07-54.27a833.64,833.64,0,0,1-81.5-34.27c-26.19-12.8-51-27.89-79.24-35.91-28.48-8.09-58.21-10.48-87.63-12.3-27.59-1.71-55.26-9.31-82.77-9.22-13.33.05-27.31,3.87-36.41,13.62-14.72,15.77-12.06,41-4.61,61.27,11,29.82,32.65,57.43,61.34,71.78,30,15,63.71,7.61,94.6,0,19.74-4.86,56.56-5.14,58.8,23.39.5,6.35-1.15,12.68-3.34,18.66-16,43.84-58.18,70.85-78.74,112.16-21.52,43.22-33.68,94-32.47,142.44.86,34.67,9.56,69.33,29,98.36a79.15,79.15,0,0,0,15.63,17.63c15.6,12.68,31.71,23.63,50.94,30.07,27,9,56.21,10,84.54,10.29,53.54.66,106.85-6,159.68-14.09,26.41-4.06,53.15-7.54,79.37-12.66,24-4.72,49.12-5.52,73.44-9.94,14.2-2.59,29.31-5.69,43.29-9.31V749.14l-1,.34c-69.52,22.45-144.73,24.23-217.06,34.42-38.2,5.38-76.67,13.24-115.34,14s-78.86-6.08-111.09-27.67C356,743.8,332.43,697,329.06,649.48a196.06,196.06,0,0,1,3.41-51.78A237.57,237.57,0,0,1,356.52,531.56Zm5.89-234c-5,4.2-34.51,33-66.48,34.77-36.22,2-77.29-37-65.06-75.61,4.84-15.28,21-23.76,36.32-19.85,14.84,3.76,29.74,6.61,44.77,9.2,5.61,1,11.24,1.9,16.9,2.83,15,2.47,35.64,4.65,47.73,14.77C391.31,276,367.41,293.36,362.41,297.58Z"/><path class="cls-4" d="M831.23,660.46c-11-28.35-27.83-52.56-48.89-74.38a465.42,465.42,0,0,0-57.13-50.54C705.53,521,688,504.39,669,489c-12.58-10.22-26.25-19.36-41.82-24.28-19.34-6.11-40.09-5.32-60.35-4.54-20.56.79-41.62,1.62-60.64,9.49-27.31,11.31-49.73,36.13-71,56s-40.24,42.72-48.31,71.22c-8.52,30.08-8.81,64.22,4.61,93.38,13.33,29,39.67,50.79,65.42,68.4,17.75,12.14,37.32,14.62,58.25,12.47,46.38-4.76,92.75-9.69,139.05-15.17,23.06-2.73,47.12-5.81,70.54-8.89,21.63-2.86,45.35-4,64.57-15.47C817.2,715,844.17,693.85,831.23,660.46Zm-188.3,85.59c-39.2,2.6-78.78,2.66-118,4-17.45.61-35.7,1.33-51.5-6.13-11.92-5.62-21.33-15.43-29.69-25.64-21.77-26.55-39-59.89-34.79-94,4.58-37.35,33.55-67.22,61.73-89.35,30.62-24,66.43-45.48,106.38-46.55,26-.7,51.69,7.61,74.6,20s43.4,28.8,63.46,45.44c28.31,23.46,56.51,48.07,76.1,79.22,10.5,16.7,18.5,37.15,12.41,55.93C796,712.41,770,723.92,746.26,730.3,712.46,739.39,677.85,743.73,642.93,746.05Z"/><path class="cls-4" d="M738.78,656.33c-7-43.55-39-55.57-68.36-78.22-16.55-12.77-32.72-27.39-53.6-32.33-43.36-10.26-91.75,32.41-116,64-14.64,19.08-20.84,41.49-13.55,64.86,12.68,40.62,53.1,51.53,127.17,47.48S745.72,699.88,738.78,656.33ZM615.1,704.4c-40.46,2.22-75.1-10.32-83.52-32.81-8-21.36,9.57-38,25.52-49.3,17.26-12.25,36.24-29.42,57.44-33.92,27.32-2.9,65.49,34.45,78.07,61.31S655.57,702.19,615.1,704.4Z"/></g><text class="cls-5" transform="translate(138 414.83) rotate(-71.82)">P</text><text class="cls-5" transform="matrix(0.45, -0.89, 0.89, 0.45, 157.45, 356.54)">r</text><text class="cls-5" transform="translate(178.57 313.15) rotate(-54.94)">o</text><text class="cls-5" transform="translate(212.57 264.11) rotate(-45.59)">d</text><text class="cls-5" transform="translate(255.79 219.63) rotate(-36.08)">u</text><text class="cls-5" transform="matrix(0.89, -0.46, 0.46, 0.89, 305.93, 183.14)">รง</text><text class="cls-5" transform="matrix(0.95, -0.31, 0.31, 0.95, 354.63, 157.77)">รฃ</text><text class="cls-5" transform="translate(411.6 138.86) rotate(-8.85)">o</text><text class="cls-5" transform="matrix(1, -0.04, 0.04, 1, 471.52, 130.49)"> </text><text class="cls-5" transform="translate(494.24 128.33) rotate(3.97)">S</text><text class="cls-5" transform="matrix(0.97, 0.23, -0.23, 0.97, 554.55, 132.19)">u</text><text class="cls-5" transform="matrix(0.93, 0.38, -0.38, 0.93, 614.89, 146.78)">s</text><text class="cls-5" transform="translate(662.28 166.42) rotate(29.01)">t</text><text class="cls-5" transform="translate(694.68 183.52) rotate(36.17)">e</text><text class="cls-5" transform="matrix(0.7, 0.71, -0.71, 0.7, 739.93, 215.97)">n</text><text class="cls-5" transform="matrix(0.6, 0.8, -0.8, 0.6, 783.88, 261.36)">t</text><text class="cls-5" transform="matrix(0.49, 0.87, -0.87, 0.49, 806.69, 289.98)">รก</text><text class="cls-5" transform="translate(836.35 342.29) rotate(69.19)">v</text><text class="cls-5" transform="translate(855.57 392.03) rotate(77.68)">e</text><text class="cls-5" transform="translate(866.94 447.22) rotate(84.3)">l</text><text class="cls-6" transform="translate(249.35 872.93) rotate(28.81)">e</text><text class="cls-6" transform="translate(365.35 930.71) rotate(9.97)">w</text><text class="cls-6" transform="translate(528.66 948.96) rotate(-9.55)">รป</text><text class="cls-6" transform="translate(665.3 917.95) rotate(-26.93)">a</text></g></g></svg>