<svg width="60" height="60" viewBox="0 0 60 60" fill="none" xmlns="http://www.w3.org/2000/svg">
<path fill-rule="evenodd" clip-rule="evenodd" d="M60 30C60 13.4315 46.5685 0 30 0C13.4315 0 0 13.4315 0 30C0 46.5685 13.4315 60 30 60C46.5685 60 60 46.5685 60 30ZM56.4 30C56.4 15.4197 44.5803 3.6 30 3.6C15.4197 3.6 3.6 15.4197 3.6 30C3.6 44.5803 15.4197 56.4 30 56.4C44.5803 56.4 56.4 44.5803 56.4 30ZM44.122 36.9186C43.7638 38.4752 42.4905 39.623 40.9583 39.7942C37.329 40.1998 33.6557 40.2018 29.9982 40.1998C26.341 40.2018 22.6673 40.1998 19.0383 39.7942C17.5058 39.623 16.2332 38.4752 15.8753 36.9186C15.3657 34.7016 15.3657 32.2825 15.3657 30.0003C15.3657 27.7179 15.3718 25.2984 15.881 23.0814C16.2392 21.5248 17.5119 20.3766 19.0441 20.2058C22.6734 19.8002 26.3467 19.7982 30.0042 19.8002C33.6614 19.7982 37.335 19.8002 40.964 20.2058C42.4965 20.3766 43.7698 21.5248 44.1277 23.0814C44.6373 25.2984 44.6343 27.7179 44.6343 30.0003C44.6343 32.2825 44.6313 34.7016 44.122 36.9186ZM27.3657 24.6L35.4657 29.2765L27.3657 33.9531V24.6Z" fill="white"/>
</svg>
