<svg width="261" height="281" viewBox="0 0 261 281" fill="none" xmlns="http://www.w3.org/2000/svg">
<path d="M261 150.885C261 200.367 233.299 243.394 192.517 265.397C189.697 266.918 186.814 268.34 183.872 269.653C176.367 273.013 168.486 275.684 160.312 277.588C159.972 277.669 159.633 277.745 159.291 277.822C153.498 279.122 147.557 280.04 141.5 280.542C137.873 280.845 134.205 280.998 130.5 280.998C93.1637 280.998 59.4892 265.366 35.7051 240.307C35.6617 240.263 35.6203 240.218 35.5768 240.175C32.7658 237.205 30.0934 234.105 27.5722 230.881C26.8622 229.975 26.1646 229.061 25.4794 228.136C19.3212 219.827 14.1297 210.758 10.0725 201.099C3.58521 185.651 0 168.686 0 150.885C0 126.546 6.70261 103.769 18.367 84.2865C40.6876 47.0047 81.1827 21.7925 127.658 20.8039C128.602 20.7833 129.55 20.7729 130.498 20.7729C202.575 20.7709 261 79.0257 261 150.885Z" fill="#FCE8DA"/>
<path d="M79.3901 149.48C79.0465 153.878 81.0275 164.585 77.8935 164.381C54.2646 170.356 20.141 179.839 16.4957 188.623C10.2278 164.802 23.7345 134.488 26.2681 116.873C29.0171 122.683 37.3508 121.725 41.8944 121.768C43.4718 121.785 53.6209 143.526 79.3901 149.48Z" fill="#7F4928"/>
<path d="M110.463 145.75L110.765 151.758L110.986 156.179L111.243 161.298C105.49 160.637 99.7669 160.437 94.3167 160.868C89.0548 161.285 83.2754 162.251 77.3635 163.543C77.3946 163.425 77.4256 163.295 77.4567 163.149C77.7713 162.912 77.9348 162.786 77.9348 162.786L77.8231 158.311L77.8086 157.762C77.8189 157.098 77.821 156.417 77.8189 155.746C77.8169 155.422 77.8127 155.1 77.8127 154.78C77.7775 151.676 77.6637 148.999 77.6637 148.999L77.6927 148.949C82.7641 150.056 88.4524 150.514 94.7969 150.012C96.1652 149.903 97.4879 149.744 98.7651 149.536L98.7713 149.534C103.187 148.809 107.066 147.507 110.463 145.75Z" fill="#F6AD85"/>
<path d="M131.816 100.888C132.187 110.341 132.94 120.691 129.672 128.338C126.039 136.841 118.136 143.084 110.638 147.04C101.524 151.849 89.653 151.637 75.9207 145.738C65.4798 139.569 54.4737 130.199 52.0435 116.351C50.1412 108.013 47.0217 99.687 52.0125 94.9174C53.9189 93.1508 57.3095 93.4727 59.512 92.8577C78.5144 91.7804 91.8969 75.6099 97.55 59.5386C105.116 67.3256 117.2 78.487 124.058 78.2125C123.773 81.1659 123.406 89.6711 129.902 89.2913C130.881 92.3644 131.616 96.8554 131.816 100.888Z" fill="#F6AD85"/>
<path d="M141.636 87.8465C142.214 93.9329 138.153 100.316 131.816 100.886C131.347 93.9865 129.097 85.7661 129.084 79.0503C129.084 79.0503 130.779 78.5529 133.058 76.8069C137.61 77.9915 141.2 82.369 141.636 87.8465Z" fill="#EA8C6C"/>
<path d="M102.965 74.2168C102.965 74.2168 116.254 67.1873 120.427 67.6805C120.427 67.6805 106.107 66.9602 100.781 72.7411C101.322 74.3468 102.965 74.2168 102.965 74.2168Z" fill="#140000"/>
<path d="M144.087 52.8969C144.019 55.4809 143.597 58.1453 142.792 60.9027C140.645 68.25 136.613 76.0288 129.084 79.0503L129.9 89.2912C123.361 89.6173 123.789 81.2215 124.056 78.2123C115.65 78.9512 96.4343 58.8409 90.7708 52.2014C92.1887 59.4187 79.5246 74.4685 73.6334 80.3856C72.0788 82.4103 68.8724 82.8375 69.0194 87.8135C66.1939 92.548 56.5209 93.3756 48.4003 94.521C44.3307 95.101 46.8064 101.52 46.6781 103.887C45.8749 107.247 39.6691 112.894 39.6526 113.03C38.572 108.848 38.0504 104.149 39.4518 98.8696C35.0821 99.1049 28.5285 99.5899 26.2267 104.477C24.7052 92.5335 15.469 82.0243 12.6414 70.3696C6.61772 45.5392 18.1765 23.1689 40.5509 11.5081C51.1762 5.97072 62.8198 2.93683 74.4966 0.515908C85.0514 -1.67179 92.522 3.41565 100.361 10.0262C102.27 7.89837 104.805 6.22457 107.637 5.82212C112.456 5.13691 117.49 9.70219 120.603 12.8929C126.565 19.002 131.785 25.9077 136.913 32.7123C141.67 39.0195 144.276 45.6424 144.087 52.8969Z" fill="#7F4928"/>
<path d="M27.5743 230.885C26.8643 229.979 26.1667 229.065 25.4815 228.14C19.3233 219.831 14.1318 210.763 10.0746 201.104C10.3686 200.043 10.6894 198.957 11.0724 197.723C12.4344 194.002 14.2415 190.481 16.2246 187.536C18.7313 183.813 21.5134 181.01 24.0243 179.885H24.0263C24.0657 179.869 24.1071 179.848 24.1485 179.831C25.6947 179.171 27.1334 179.159 28.334 179.97C30.3501 181.334 31.6998 185.026 31.7639 191.895C32.3228 202.852 29.3214 219.73 27.5743 230.885Z" fill="#EA8C6C"/>
<path d="M183.872 269.655C176.367 273.015 168.486 275.686 160.312 277.591C159.972 277.671 159.633 277.748 159.291 277.824C153.498 279.124 147.557 280.043 141.5 280.544C146.569 270.28 151.183 261.076 151.183 261.076L141.225 229.509C141.225 229.509 149.149 183.414 155.338 173.59C155.441 173.427 155.545 173.272 155.646 173.128C169.658 179.689 172.264 184.807 175.785 198.373C176.185 199.913 176.594 201.56 177.035 203.329C179.648 215.233 181.678 241.97 183.872 269.655Z" fill="#EA8C6C"/>
<path d="M132.885 155.828C130.92 158.644 128.44 161.768 125.909 164.596C121.427 163.525 116.089 162.544 111.245 161.991C111.015 157.397 110.694 151.026 110.463 146.444C127.65 137.607 132.661 116.908 131.817 100.886C135.213 100.597 138.103 98.5788 139.86 95.6543C139.858 95.6564 156.112 122.637 132.885 155.828Z" fill="#7F4928"/>
<path d="M68.2763 107.332C67.024 107.775 65.546 107.695 64.5462 106.96C63.4429 106.149 62.7847 104.828 62.381 103.553C61.6855 101.359 61.226 97.6066 63.091 95.8028C63.681 95.2332 64.8195 94.9855 65.6185 94.872C68.8332 94.42 70.4188 98.2918 70.7686 100.843C70.9694 102.3 71.0232 103.963 70.485 105.359C70.1228 106.302 69.2699 106.981 68.2763 107.332Z" fill="#030000"/>
<path d="M93.7516 123.329C94.1946 123.971 94.7224 124.53 95.3662 124.831C96.0017 125.143 96.7034 125.221 97.401 125.149C98.1006 125.079 98.7962 124.875 99.471 124.606C100.146 124.336 100.802 123.997 101.429 123.614C102.69 122.829 103.903 121.927 105.043 120.941C106.188 119.954 107.258 118.873 108.32 117.725C107.689 119.156 106.784 120.464 105.724 121.632C104.658 122.8 103.435 123.82 102.075 124.664C101.384 125.081 100.653 125.438 99.8788 125.7C99.1046 125.958 98.2828 126.131 97.4362 126.115C96.5978 126.101 95.716 125.863 95.0453 125.339C94.3705 124.817 93.9482 124.08 93.7516 123.329Z" fill="#D86E4E"/>
<path d="M132.442 164.385C128.914 186.05 122.452 216.029 98.6079 218.82C76.9951 221.35 58.208 179.788 52.7101 169.089C86.9621 158.417 103.112 156.268 132.442 164.385Z" fill="#F6AD85"/>
<path d="M39.3835 209.547C37.2162 219.744 36.173 230.074 35.7051 240.311C35.6617 240.268 35.6203 240.222 35.5768 240.179C32.7658 237.209 30.0934 234.109 27.5722 230.885C26.8622 229.979 26.1646 229.065 25.4794 228.14C29.6567 210.189 36.4586 187.067 26.3571 180.909C25.6616 180.483 24.8874 180.139 24.0242 179.883C24.0636 179.866 24.105 179.846 24.1464 179.829C26.2991 178.876 32.0682 176.288 36.5497 174.645C36.9927 175.078 37.4025 175.58 37.7793 176.139C42.6541 183.404 41.8902 200.563 39.3835 209.547Z" fill="#EA8C6C"/>
<path d="M159.291 277.824C153.498 279.124 147.557 280.042 141.5 280.544C137.873 280.847 134.205 281 130.5 281C93.1637 281 59.4892 265.368 35.7051 240.309C35.6617 240.265 35.6203 240.22 35.5768 240.177C35.6389 238.928 35.6886 238.193 35.701 238.09C34.6784 239.576 35.7196 237.572 35.7362 237.149C36.204 231.624 36.5683 226.772 37.1272 222.479C39.7002 202.707 42.5444 193.907 37.1065 176.382C36.9306 175.811 36.7443 175.231 36.5497 174.64C41.4224 172.853 47.2639 170.824 52.708 169.085C52.708 169.085 52.708 169.085 52.708 169.087C52.708 169.099 52.7452 169.169 52.8135 169.291C52.8198 169.307 52.8301 169.322 52.8405 169.34C53.0102 169.64 53.3373 170.193 53.7699 170.923C56.229 175.039 62.1616 184.727 62.9544 185.785C67.1006 191.329 71.9526 196.544 77.8521 200.257C90.4438 208.178 104.857 205.768 115.617 195.962C123.681 188.615 129.771 178.197 131.941 167.4C132.144 166.397 132.311 165.392 132.444 164.383C141.214 166.88 149.285 170.028 155.646 173.128C155.557 173.084 155.454 173.252 155.34 173.59C154.23 176.841 152.053 195.946 151.972 197.692C151.488 208.321 151.92 218.915 152.86 229.48C154.301 245.652 156.934 261.759 159.291 277.824Z" fill="#C1272D"/>
<path d="M197.172 178.851C196.64 179.685 196.228 180.969 195.911 182.488C195.593 184.015 195.367 185.781 195.21 187.575C194.754 192.761 194.864 198.159 194.872 198.565C194.872 198.582 194.872 198.59 194.872 198.59C196.706 225.214 195.379 247.338 192.517 265.399C189.697 266.92 186.814 268.342 183.872 269.655C176.367 273.015 168.486 275.686 160.312 277.591C165.601 245.613 173.926 206.909 175.785 198.373C176.027 197.255 176.16 196.654 176.16 196.654C176.16 196.654 176.205 196.462 176.286 196.109L176.292 196.08C176.609 194.681 177.433 190.875 178.12 186.448C178.343 185.008 178.55 183.501 178.724 181.99C178.938 180.114 179.095 178.234 179.151 176.463C183.121 172.432 199.851 174.659 197.172 178.851Z" fill="#F3AF87"/>
<path d="M103.211 148.989C94.8942 151.527 86.1609 151.414 77.6926 149.643C77.6554 149.637 77.6223 149.626 77.5871 149.62C52.8446 144.174 42.7969 123.293 42.7969 123.293C42.4781 122.862 42.1759 122.352 41.8944 121.768C21.3187 131.499 18.4704 93.4458 39.4518 98.8696C38.7811 104.781 39.7933 114.142 39.6546 113.03C39.6546 113.03 44.4032 108.396 46.1047 105.327C46.5021 104.607 46.734 103.974 46.6988 103.505C46.6988 103.505 45.1484 97.0348 46.0467 95.3136C46.4773 94.488 50.6214 94.3208 55.372 93.615C52.6521 94.0174 50.7394 97.5157 50.195 99.8541C49.4601 102.997 49.93 106.339 50.6111 109.445C52.3188 117.219 55.8046 124.548 60.7167 130.831C63.5671 134.48 66.8935 137.767 70.6444 140.49C79.9241 147.232 91.8182 150.409 103.211 148.989Z" fill="#EA8C6C"/>
<path d="M19.0045 136.919C15.175 151.946 16.5702 159.547 16.5702 159.547C15.736 164.104 15.0736 169.547 15.0343 175.365L14.8107 175.384C11.418 149.754 18.9175 125.39 25.5104 113.096C25.6222 114.429 26.7359 114.929 26.0569 116.435C22.6642 124.412 20.499 131.095 19.0045 136.919Z" fill="#7F4928"/>
<path d="M97.5499 59.5406C90.5265 79.2319 75.7075 91.999 59.512 92.8596C74.1385 88.8186 66.3222 86.3275 70.9424 82.8107C73.209 81.5146 92.4868 61.0761 90.7728 52.2056C90.7708 52.2035 93.5197 55.3922 97.5499 59.5406Z" fill="#EA8C6C"/>
<path d="M178.066 186.415C183.746 190.563 193.562 188.278 195.326 187.527C195.326 187.527 195.889 196.889 194.821 198.658C193.75 200.426 181.813 202.511 175.915 198.129L178.066 186.415Z" fill="#00766E"/>
<path d="M188.099 183.517C198.048 183.517 206.112 178.844 206.112 173.08C206.112 167.316 198.048 162.643 188.099 162.643C178.151 162.643 170.086 167.316 170.086 173.08C170.086 178.844 178.151 183.517 188.099 183.517Z" fill="#F6AD85"/>
<path d="M203.218 174.867L177.389 173.361C176.59 173.313 175.982 172.632 176.029 171.836L179.072 119.942C179.12 119.145 179.803 118.538 180.602 118.586L206.431 120.092C207.23 120.14 207.839 120.821 207.791 121.617L204.748 173.511C204.701 174.308 204.017 174.915 203.218 174.867Z" fill="#2E2D2C"/>
<path d="M201.509 168.271L179.857 167.008C179.248 166.973 178.782 166.451 178.818 165.844L181.318 123.192C181.353 122.585 181.877 122.121 182.486 122.156L204.138 123.419C204.746 123.454 205.212 123.976 205.177 124.583L202.676 167.235C202.641 167.842 202.119 168.306 201.509 168.271Z" fill="white"/>
<path d="M190.575 169.479C189.712 169.429 188.971 170.085 188.919 170.946L188.917 170.969C188.867 171.829 189.526 172.568 190.389 172.62C191.252 172.669 191.993 172.013 192.045 171.153L192.047 171.13C192.098 170.269 191.44 169.53 190.575 169.479Z" fill="white"/>
<path d="M190.571 169.551C189.747 169.504 189.039 170.131 188.989 170.952L188.987 170.975C188.94 171.797 189.569 172.502 190.393 172.552C191.217 172.599 191.925 171.972 191.974 171.151L191.976 171.128C192.026 170.304 191.397 169.599 190.571 169.551Z" fill="#2E2D2C"/>
<path d="M190.563 169.689C189.815 169.646 189.172 170.216 189.128 170.961L189.126 170.981C189.083 171.726 189.654 172.368 190.401 172.412C191.148 172.455 191.792 171.885 191.836 171.14L191.838 171.12C191.883 170.375 191.312 169.733 190.563 169.689Z" fill="white"/>
<path d="M195.959 121.673L190.815 121.374C190.745 121.37 190.691 121.31 190.695 121.24L190.71 120.992C190.714 120.922 190.774 120.868 190.844 120.873L195.988 121.172C196.058 121.176 196.112 121.236 196.108 121.306L196.094 121.554C196.089 121.624 196.029 121.675 195.959 121.673Z" fill="white"/>
<path d="M180.988 171.669C183.294 167.376 183.135 162.814 180.634 161.478C178.133 160.143 174.236 162.54 171.93 166.832C169.625 171.125 169.783 175.687 172.284 177.023C174.786 178.358 178.682 175.961 180.988 171.669Z" fill="#F6AD85"/>
<path d="M211.051 167.067C213.169 159.649 211.753 152.745 207.889 151.648C204.024 150.551 199.173 155.676 197.055 163.095C194.937 170.514 196.353 177.417 200.218 178.514C204.083 179.611 208.933 174.486 211.051 167.067Z" fill="#F6AD85"/>
<path d="M209.948 163.05C210.694 161.119 207.584 158.127 203.003 156.367C198.421 154.607 194.102 154.746 193.356 156.676C192.61 158.606 195.72 161.598 200.301 163.358C204.883 165.118 209.202 164.98 209.948 163.05Z" fill="#F6AD85"/>
<path d="M208.551 168.79C209.297 166.86 206.188 163.868 201.606 162.108C197.024 160.348 192.705 160.487 191.96 162.417C191.214 164.347 194.323 167.339 198.905 169.099C203.486 170.859 207.805 170.721 208.551 168.79Z" fill="#F6AD85"/>
<path d="M207.529 174.314C208.275 172.384 205.395 169.48 201.096 167.829C196.797 166.178 192.707 166.404 191.961 168.334C191.215 170.265 194.095 173.168 198.394 174.82C202.693 176.471 206.783 176.245 207.529 174.314Z" fill="#F6AD85"/>
<path d="M113.717 96.323C112.464 96.7668 110.986 96.6863 109.986 95.9515C108.883 95.1404 108.225 93.8195 107.821 92.5441C107.126 90.3502 106.666 86.5981 108.531 84.7942C109.121 84.2246 110.26 83.9769 111.059 83.8634C114.273 83.4114 115.859 87.2833 116.209 89.8342C116.41 91.2913 116.463 92.9548 115.923 94.35C115.563 95.2931 114.71 95.9722 113.717 96.323Z" fill="#030000"/>
<path d="M200.054 141.726C199.907 141.01 199.387 140.422 198.696 140.193C197.441 139.776 192.337 139.478 192.337 139.478C192.337 139.478 187.23 139.181 185.936 139.447C185.222 139.594 184.636 140.118 184.407 140.812C183.99 142.071 183.833 144.737 183.833 144.737C183.833 144.737 183.676 147.404 183.943 148.702C184.09 149.418 184.609 150.006 185.301 150.235C186.555 150.652 191.66 150.949 191.66 150.949C191.66 150.949 196.766 151.247 198.06 150.978C198.774 150.832 199.36 150.308 199.59 149.614C200.006 148.355 200.163 145.689 200.163 145.689C200.163 145.689 200.321 143.024 200.054 141.726Z" fill="#FF0000"/>
<path d="M190.186 147.538L194.597 145.365L190.472 142.696L190.186 147.538Z" fill="white"/>
<path d="M77.6927 149.643C77.6927 149.643 95.3683 153.249 110.463 146.446C110.463 146.446 110.612 147.259 110.665 150.481C93.5881 154.646 77.819 156.283 77.819 156.283L77.6927 149.643Z" fill="#EA8C6C"/>
<path d="M211.323 156.416C212.157 154.521 209.308 151.443 204.959 149.54C200.61 147.637 196.409 147.63 195.575 149.524C194.741 151.419 197.59 154.497 201.939 156.4C206.288 158.303 210.489 158.31 211.323 156.416Z" fill="#F6AD85"/>
</svg>
