<svg width="102" height="140" viewBox="0 0 102 140" fill="none" xmlns="http://www.w3.org/2000/svg">
<path d="M66.9682 74.0988C67.1376 76.2786 66.1579 81.5873 67.7071 81.4852C79.3857 84.4467 96.2506 89.1472 98.0528 93.5027C101.151 81.6934 94.4749 66.6675 93.2217 57.936C91.8624 60.8159 87.7437 60.3403 85.4986 60.3628C84.7209 60.371 79.7041 71.1475 66.9682 74.0988Z" fill="#7F4928"/>
<path d="M51.6096 72.2494L51.4606 75.2272L51.3504 77.4193L51.2238 79.9562C54.0669 79.6276 56.8958 79.5297 59.5899 79.744C62.1902 79.9501 65.0476 80.4298 67.9683 81.0706C67.9519 81.0114 67.9376 80.9482 67.9234 80.8747C67.7682 80.7563 67.6866 80.6951 67.6866 80.6951L67.7417 78.4765L67.7499 78.2051C67.7438 77.8765 67.7438 77.5376 67.7438 77.205C67.7458 77.0437 67.7458 76.8845 67.7478 76.7253C67.7642 75.1864 67.8213 73.8597 67.8213 73.8597L67.807 73.8353C65.3007 74.3843 62.4882 74.6108 59.3532 74.3618C58.6776 74.3088 58.0224 74.2292 57.3917 74.1251L57.3897 74.123C55.2058 73.7659 53.2893 73.1209 51.6096 72.2494Z" fill="#F6AD85"/>
<path d="M41.0555 50.0108C40.8718 54.6969 40.5003 59.828 42.1148 63.6182C43.9109 67.8329 47.8174 70.9291 51.5218 72.8905C56.0263 75.2744 61.8942 75.1682 68.6806 72.2455C73.8402 69.1881 79.2795 64.5427 80.4817 57.6768C81.4226 53.5437 82.9636 49.4168 80.498 47.0533C79.5551 46.1777 77.8794 46.3369 76.7915 46.0328C67.4009 45.4981 60.7859 37.483 57.9918 29.517C54.2527 33.3765 48.2807 38.9097 44.8905 38.775C45.0314 40.2384 45.213 44.4551 42.0025 44.2674C41.5188 45.7859 41.1555 48.0126 41.0555 50.0108Z" fill="#F6AD85"/>
<path d="M36.2018 43.547C35.9161 46.5636 37.9224 49.7292 41.0553 50.0109C41.288 46.5902 42.4004 42.5163 42.4065 39.1874C42.4065 39.1874 41.5697 38.9405 40.443 38.0751C38.1918 38.6608 36.4182 40.8325 36.2018 43.547Z" fill="#EA8C6C"/>
<path d="M55.3162 36.7914C55.3162 36.7914 48.7482 33.3074 46.6847 33.5523C46.6847 33.5523 53.763 33.1951 56.3959 36.0607C56.1285 36.8547 55.3162 36.7914 55.3162 36.7914Z" fill="#140000"/>
<path d="M34.9917 26.2228C35.0244 27.5046 35.2346 28.8251 35.6326 30.1926C36.6939 33.8358 38.6859 37.6913 42.4067 39.1894L42.0026 44.2654C45.2355 44.4266 45.0233 40.265 44.8906 38.773C49.0441 39.1404 58.5429 29.17 61.3411 25.8799C60.6411 29.4578 66.8988 36.9177 69.8113 39.8506C70.5808 40.8548 72.1646 41.065 72.0911 43.5326C73.4872 45.8798 78.2672 46.29 82.2819 46.8574C84.2923 47.1452 83.0697 50.3272 83.133 51.5007C83.529 53.1662 86.5966 55.9665 86.6048 56.0338C87.1375 53.9602 87.3967 51.6314 86.7048 49.0148C88.8642 49.1311 92.1032 49.372 93.2401 51.7946C93.9932 45.8737 98.5569 40.665 99.955 34.8869C102.935 22.5755 97.2221 11.4867 86.1639 5.70455C80.9124 2.9594 75.1567 1.45517 69.3868 0.255058C64.17 -0.828719 60.4778 1.69193 56.604 4.96979C55.661 3.91459 54.4078 3.08594 53.0077 2.88592C50.6258 2.54711 48.1379 4.80855 46.5989 6.39033C43.6517 9.41919 41.0719 12.842 38.5369 16.2158C36.1857 19.3426 34.8978 22.6266 34.9917 26.2228Z" fill="#7F4928"/>
<path d="M92.579 114.454C92.93 114.005 93.2749 113.551 93.6137 113.092C96.6569 108.973 99.2245 104.477 101.229 99.6889C101.084 99.1623 100.925 98.6255 100.737 98.0132C100.063 96.1681 99.1714 94.4231 98.1897 92.9617C96.9508 91.1166 95.5752 89.7267 94.3342 89.1695C94.3138 89.1614 94.2954 89.1512 94.273 89.143C93.5097 88.8164 92.7973 88.8083 92.2034 89.2124C91.2074 89.89 90.54 91.7187 90.5094 95.1252C90.2318 100.556 91.7156 108.924 92.579 114.454Z" fill="#EA8C6C"/>
<path d="M15.3266 133.672C19.0352 135.337 22.9314 136.662 26.9706 137.605C27.138 137.644 27.3053 137.682 27.4747 137.721C30.3383 138.366 33.2753 138.821 36.2674 139.07C33.761 133.982 31.4812 129.418 31.4812 129.418L36.4021 113.77C36.4021 113.77 32.4854 90.9208 29.428 86.051C29.3769 85.9693 29.3259 85.8938 29.2749 85.8224C22.3498 89.0737 21.0619 91.6107 19.3209 98.3358C19.1229 99.0992 18.9209 99.9156 18.7025 100.791C17.4166 106.694 16.4125 119.948 15.3266 133.672Z" fill="#EA8C6C"/>
<path d="M40.5292 77.246C41.5007 78.6421 42.7253 80.1912 43.9765 81.5913C46.191 81.0607 48.83 80.5749 51.2241 80.3014C51.3384 78.0236 51.4956 74.8662 51.6099 72.5946C43.1152 68.2146 40.6374 57.9544 41.0558 50.0108C39.3761 49.8679 37.9494 48.8678 37.0799 47.4187C37.082 47.4187 29.0485 60.7934 40.5292 77.246Z" fill="#7F4928"/>
<path d="M72.4607 53.2049C73.0812 53.4254 73.8098 53.3845 74.3037 53.0212C74.8487 52.6192 75.1752 51.964 75.3732 51.3333C75.7161 50.2455 75.9447 48.3861 75.0222 47.4922C74.7303 47.2085 74.167 47.086 73.7731 47.0309C72.1831 46.8064 71.3994 48.7249 71.2279 49.9903C71.1299 50.7129 71.1014 51.5374 71.3687 52.2293C71.5484 52.6947 71.9708 53.0315 72.4607 53.2049Z" fill="#030000"/>
<path d="M59.8695 61.1361C59.647 61.4525 59.3858 61.728 59.0694 61.877C58.7572 62.0341 58.4081 62.0709 58.0653 62.0382C57.3713 61.9586 56.6957 61.6484 56.0773 61.2749C55.4528 60.8891 54.8547 60.4381 54.2894 59.9523C53.724 59.4625 53.1954 58.9257 52.6709 58.3583C52.9831 59.0665 53.4281 59.7156 53.9547 60.2932C54.4792 60.8748 55.0854 61.379 55.7569 61.7953C56.0977 62.0015 56.459 62.179 56.8427 62.3076C57.2244 62.4362 57.6305 62.524 58.0489 62.5117C58.4633 62.5077 58.8959 62.3852 59.2286 62.128C59.5593 61.8688 59.7695 61.5076 59.8695 61.1361Z" fill="#D86E4E"/>
<path d="M40.7473 81.4871C42.4903 92.2269 45.6845 107.088 57.4693 108.471C68.152 109.725 77.4365 89.1225 80.1552 83.82C63.225 78.5297 55.2426 77.4643 40.7473 81.4871Z" fill="#F6AD85"/>
<path d="M86.7415 103.875C87.813 108.931 88.3294 114.051 88.5601 119.125C88.5825 119.103 88.6029 119.08 88.6233 119.06C90.0133 117.588 91.3338 116.052 92.5788 114.453C92.9299 114.004 93.2748 113.551 93.6136 113.092C91.5501 104.193 88.1865 92.731 93.1789 89.6797C93.5217 89.4695 93.9055 89.298 94.332 89.1715C94.3116 89.1633 94.2933 89.1531 94.2708 89.1449C93.2074 88.6714 90.3561 87.3897 88.1416 86.5753C87.9233 86.7896 87.7212 87.0386 87.5334 87.3162C85.125 90.9165 85.5026 99.4214 86.7415 103.875Z" fill="#EA8C6C"/>
<path d="M27.4767 137.721C30.3402 138.366 33.2772 138.821 36.2693 139.07C38.0613 139.221 39.8758 139.297 41.7066 139.297C60.1593 139.297 76.8038 131.547 88.56 119.125C88.5825 119.103 88.6029 119.081 88.6233 119.06C88.5927 118.442 88.5682 118.076 88.562 118.025C89.0682 118.762 88.5518 117.768 88.5457 117.558C88.3151 114.819 88.1355 112.415 87.8579 110.286C86.5863 100.485 85.1801 96.1212 87.8681 87.4347C87.9559 87.151 88.0477 86.8632 88.1436 86.5713C85.7352 85.6855 82.8472 84.6793 80.1572 83.818C80.1572 83.8241 80.1388 83.8588 80.1061 83.918C80.1021 83.9262 80.098 83.9343 80.0939 83.9425C80.0102 84.0915 79.849 84.365 79.6347 84.7262C78.4203 86.7672 75.4873 91.5677 75.0955 92.0943C73.0463 94.8415 70.6481 97.4274 67.7315 99.2684C61.5085 103.195 54.3853 101.999 49.0665 97.1397C45.0804 93.4985 42.0699 88.3327 40.9983 82.9812C40.8983 82.4832 40.8147 81.9852 40.7493 81.4851C36.4142 82.722 32.4261 84.2833 29.2809 85.8202C29.3258 85.7978 29.3768 85.8814 29.4319 86.0488C29.981 87.6592 31.0566 97.1315 31.0974 97.9969C31.3362 103.265 31.1239 108.518 30.6586 113.753C29.9442 121.773 28.6421 129.757 27.4767 137.721Z" fill="#C1272D"/>
<path d="M8.75468 88.6595C9.01797 89.0738 9.22207 89.7085 9.37719 90.4617C9.53435 91.2189 9.64661 92.0945 9.72416 92.9844C9.94868 95.556 9.89561 98.2298 9.89153 98.4318C9.89153 98.44 9.89153 98.4441 9.89153 98.4441C8.98532 111.641 9.64048 122.61 11.0549 131.564C12.4489 132.319 13.8735 133.023 15.3267 133.674C19.0353 135.339 22.9315 136.664 26.9707 137.607C24.3562 121.756 20.2415 102.569 19.323 98.3379C19.2026 97.7848 19.1373 97.4868 19.1373 97.4868C19.1373 97.4868 19.1149 97.3909 19.0761 97.2174L19.074 97.2031C18.9169 96.5092 18.5107 94.6233 18.1699 92.4292C18.0597 91.7149 17.9576 90.9679 17.8719 90.2208C17.7657 89.2922 17.6882 88.3574 17.6617 87.4798C15.7002 85.4775 7.43007 86.5817 8.75468 88.6595Z" fill="#F3AF87"/>
<path d="M55.194 73.8561C59.3046 75.1154 63.6213 75.0583 67.8054 74.1806C67.8238 74.1766 67.8401 74.1725 67.8564 74.1704C80.0861 71.4702 85.0519 61.1202 85.0519 61.1202C85.2091 60.9059 85.3581 60.6528 85.4969 60.365C95.6672 65.19 97.0735 46.3249 86.7051 49.0129C87.0358 51.9438 86.5357 56.583 86.6051 56.032C86.6051 56.032 84.258 53.7358 83.4171 52.2153C83.2211 51.8581 83.1048 51.5438 83.1232 51.3132C83.1232 51.3132 83.8885 48.1047 83.4456 47.2515C83.2334 46.8433 81.1842 46.7597 78.837 46.4106C80.18 46.6107 81.1271 48.3455 81.3965 49.5048C81.7598 51.0621 81.5271 52.7194 81.1903 54.2583C80.3453 58.1118 78.6227 61.7448 76.196 64.8593C74.7877 66.6677 73.1426 68.2984 71.2894 69.6475C66.7032 72.9846 60.8251 74.5603 55.194 73.8561Z" fill="#EA8C6C"/>
<path d="M96.8141 67.8717C98.7061 75.3214 98.0183 79.0891 98.0183 79.0891C98.4306 81.3485 98.7592 84.0467 98.7776 86.9307L98.8878 86.9388C100.565 74.2356 96.859 62.1569 93.5995 56.0645C93.5444 56.7257 92.9933 56.9727 93.3301 57.7197C95.0058 61.6731 96.0753 64.9857 96.8141 67.8717Z" fill="#7F4928"/>
<path d="M57.994 29.5151C61.4657 39.2773 68.7889 45.6044 76.7937 46.031C69.5644 44.0267 73.4281 42.7939 71.1442 41.0489C70.0237 40.406 60.4962 30.2744 61.3433 25.8781C61.3433 25.8781 59.9839 27.4598 57.994 29.5151Z" fill="#EA8C6C"/>
<path d="M18.1963 92.4089C15.3878 94.4663 10.5364 93.3335 9.66689 92.96C9.66689 92.96 9.38932 97.6013 9.9159 98.4769C10.4445 99.3524 16.3451 100.387 19.2596 98.2156L18.1963 92.4089Z" fill="#DA0700" fill-opacity="0.37"/>
<path d="M13.239 90.9716C8.32203 90.9716 4.33607 88.6551 4.33607 85.7976C4.33607 82.9401 8.32203 80.6237 13.239 80.6237C18.1559 80.6237 22.1418 82.9401 22.1418 85.7976C22.1418 88.6551 18.1559 90.9716 13.239 90.9716Z" fill="#F6AD85"/>
<path d="M5.76458 86.6856L18.5311 85.9386C18.925 85.9161 19.2271 85.5773 19.2026 85.1834L17.6984 59.4585C17.6759 59.0646 17.3371 58.7625 16.9432 58.787L4.17668 59.534C3.78276 59.5565 3.48069 59.8953 3.50518 60.2892L5.00941 86.0141C5.03186 86.406 5.37067 86.7081 5.76458 86.6856Z" fill="#2E2D2C"/>
<path d="M6.60926 83.4139L17.3103 82.7873C17.6124 82.769 17.8409 82.5118 17.8246 82.2097L16.5878 61.0669C16.5694 60.7648 16.3122 60.5363 16.0102 60.5526L5.30914 61.1792C5.00707 61.1975 4.77848 61.4547 4.79481 61.7568L6.03166 82.8996C6.05003 83.2017 6.30923 83.4323 6.60926 83.4139Z" fill="white"/>
<path d="M12.0137 84.0141C12.4403 83.9896 12.8077 84.3141 12.8322 84.7428V84.755C12.8567 85.1816 12.5322 85.549 12.1036 85.5734C11.677 85.5979 11.3096 85.2734 11.2851 84.8448V84.8326C11.2606 84.406 11.5872 84.0386 12.0137 84.0141Z" fill="white"/>
<path d="M12.0161 84.0486C12.4243 84.0241 12.7734 84.3364 12.7978 84.7425V84.7527C12.8223 85.1609 12.5101 85.51 12.1039 85.5344C11.6957 85.5589 11.3467 85.2467 11.3222 84.8405V84.8303C11.2977 84.4221 11.6079 84.0731 12.0161 84.0486Z" fill="#2E2D2C"/>
<path d="M12.02 84.1182C12.3894 84.0957 12.7078 84.3794 12.7282 84.7489V84.7591C12.7507 85.1285 12.467 85.4469 12.0976 85.4673C11.7282 85.4897 11.4098 85.206 11.3893 84.8366V84.8264C11.3689 84.457 11.6506 84.1386 12.02 84.1182Z" fill="white"/>
<path d="M9.3528 60.3139L11.8959 60.1649C11.9306 60.1628 11.9571 60.1322 11.9551 60.0975L11.9469 59.9751C11.9449 59.9404 11.9143 59.9138 11.8796 59.9159L9.33648 60.0649C9.30178 60.0669 9.27524 60.0975 9.27729 60.1322L9.28545 60.2547C9.28953 60.2914 9.3181 60.3159 9.3528 60.3139Z" fill="white"/>
<path d="M16.7532 85.0991C15.6139 82.9717 15.6923 80.7104 16.9284 80.0484C18.1645 79.3864 20.0901 80.5743 21.2295 82.7017C22.3689 84.8291 22.2904 87.0904 21.0543 87.7524C19.8182 88.4144 17.8926 87.2265 16.7532 85.0991Z" fill="#F6AD85"/>
<path d="M1.89531 82.8187C0.848424 79.1413 1.54835 75.7192 3.45864 75.1754C5.36893 74.6316 7.76619 77.1719 8.81307 80.8494C9.85995 84.5269 9.16002 87.9489 7.24974 88.4927C5.33945 89.0365 2.94219 86.4962 1.89531 82.8187Z" fill="#F6AD85"/>
<path d="M2.43952 80.8249C2.07076 79.8677 3.60759 78.3845 5.87213 77.5121C8.13667 76.6396 10.2714 76.7082 10.6402 77.6654C11.0089 78.6225 9.47209 80.1057 7.20754 80.9782C4.943 81.8507 2.80829 81.782 2.43952 80.8249Z" fill="#F6AD85"/>
<path d="M3.12885 83.6717C2.76009 82.7145 4.29692 81.2313 6.56146 80.3589C8.826 79.4864 10.9607 79.555 11.3295 80.5122C11.6982 81.4693 10.1614 82.9525 7.89688 83.825C5.63233 84.6975 3.49762 84.6288 3.12885 83.6717Z" fill="#F6AD85"/>
<path d="M3.63544 86.4098C3.26668 85.4527 4.69011 84.0132 6.81476 83.1946C8.93941 82.376 10.9607 82.4884 11.3295 83.4455C11.6982 84.4027 10.2748 85.8422 8.15017 86.6607C6.02552 87.4793 4.00421 87.367 3.63544 86.4098Z" fill="#F6AD85"/>
<path d="M50.0015 47.7491C50.6219 47.9696 51.3506 47.9287 51.8445 47.5654C52.3894 47.1634 52.716 46.5082 52.914 45.8775C53.2569 44.7897 53.4855 42.9303 52.5629 42.0363C52.2711 41.7526 51.7077 41.6302 51.3138 41.5751C49.7239 41.3506 48.9401 43.2691 48.7687 44.5345C48.6707 45.2571 48.6421 46.0816 48.9095 46.7735C49.0891 47.2389 49.5116 47.5756 50.0015 47.7491Z" fill="#030000"/>
<path d="M15.2919 73.7134C15.2205 74.0686 14.9613 74.3604 14.6204 74.4727C14 74.6788 11.4773 74.8278 11.4773 74.8278C11.4773 74.8278 8.95256 74.9748 8.31373 74.8421C7.96063 74.7686 7.67081 74.5094 7.55855 74.1665C7.35241 73.542 7.27485 72.2215 7.27485 72.2215C7.27485 72.2215 7.19729 70.8989 7.32996 70.256C7.40139 69.9008 7.6606 69.609 8.00145 69.4967C8.62192 69.2906 11.1446 69.1416 11.1446 69.1416C11.1446 69.1416 13.6693 68.9946 14.3082 69.1273C14.6613 69.2008 14.9511 69.46 15.0633 69.8029C15.2695 70.4274 15.347 71.7479 15.347 71.7479C15.347 71.7479 15.4246 73.0705 15.2919 73.7134Z" fill="#FF0000"/>
<path d="M10.416 70.8338L12.5958 71.9094L10.5548 73.234L10.416 70.8338Z" fill="white"/>
<path d="M67.807 74.1804C67.807 74.1804 59.0715 75.9683 51.6116 72.5945C51.6116 72.5945 51.5381 72.9966 51.5116 74.5947C59.9512 76.6602 67.7458 77.4705 67.7458 77.4705L67.807 74.1804Z" fill="#EA8C6C"/>
<path d="M1.75931 77.537C1.34705 76.5978 2.75499 75.0717 4.90402 74.1285C7.05304 73.1853 9.12937 73.1821 9.54163 74.1214C9.95389 75.0607 8.54596 76.5868 6.39693 77.53C4.2479 78.4732 2.17157 78.4763 1.75931 77.537Z" fill="#F6AD85"/>
</svg>
