<svg width="118" height="100" viewBox="0 0 118 100" fill="none" xmlns="http://www.w3.org/2000/svg">
<path d="M76.8891 18.6904H118V87.1794H76.8891V18.6904Z" fill="#FCE8DA"/>
<path d="M76.8891 41.3694H118V64.5003H76.8891V41.3694Z" fill="#94CED9"/>
<path d="M68.4424 4.13391H109.553L118 18.6903H76.8891L68.4424 4.13391Z" fill="#94CED9"/>
<path d="M68.4424 4.13384H109.553L109.565 0H68.4568L68.4424 4.13384Z" fill="#FCE8DA"/>
<path d="M59.9956 18.6904H76.889V87.1794H59.9956V18.6904Z" fill="#E2D1C5"/>
<path d="M59.9956 41.3694H76.889V64.5003H59.9956V41.3694Z" fill="#68BACA"/>
<path d="M68.4423 4.13391L76.889 18.6903H59.9956L68.4423 4.13391Z" fill="#68BAC9"/>
<path d="M12.2666 85.8734H50.4383C53.7102 85.8734 56.2617 83.0596 55.9219 79.8272L49.7969 21.3637V21.3613C49.7992 17.1561 53.9448 20.0103 54.5336 17.7412C52.997 14.8656 49.1769 14.8561 49.1147 14.8561H13.5854L13.0732 19.7344L12.786 22.472L9.64333 52.4768L9.3561 55.2145L6.77829 79.8249C6.4432 83.062 8.99468 85.8734 12.2666 85.8734Z" fill="#FCE8DA"/>
<path d="M48.3728 82.9359H14.3323C11.4146 82.9359 9.1408 80.4265 9.44238 77.5438L14.3203 39.778H48.3848L53.2628 77.5438C53.5667 80.4265 51.2905 82.9359 48.3728 82.9359Z" fill="#F17105"/>
<path d="M7.68314 55.2168H9.36099L9.64822 52.4792H9.17191C5.65584 52.4792 2.95356 49.3895 3.44183 45.9311L6.47441 24.4437C6.63478 23.3163 7.60416 22.4743 8.75304 22.4743H12.7909L13.0781 19.7367H8.6573C6.24464 19.7367 4.19101 21.473 3.80326 23.8372L0.10288 46.3521C-0.663045 50.9974 2.94638 55.2168 7.68314 55.2168Z" fill="#FCE8DA"/>
<path d="M14.8994 66.869L20.0383 66.6692C20.0407 66.6692 20.0407 66.6692 20.0431 66.6692L25.1819 66.4694C25.2394 66.467 25.2944 66.4885 25.3351 66.5265C25.3758 66.5646 25.4021 66.6169 25.4045 66.674C25.4596 68.0963 24.9521 69.4521 23.9828 70.4962C23.0134 71.538 21.6898 72.1445 20.2609 72.2016C20.1891 72.204 20.1173 72.2064 20.0454 72.2064C18.6931 72.2064 17.4102 71.7093 16.4121 70.7912C15.3614 69.8255 14.751 68.5102 14.696 67.0878C14.6912 66.9713 14.7821 66.8738 14.8994 66.869ZM24.9809 66.9023L20.5696 67.0736L23.808 70.0491C24.5644 69.1666 24.9761 68.063 24.9809 66.9023ZM23.5184 70.3606L20.2824 67.3851L20.4547 71.764C21.618 71.6688 22.6927 71.1765 23.5184 70.3606ZM20.0287 71.7806L19.8564 67.4018L16.8621 70.6199C17.7501 71.3715 18.8583 71.7782 20.0287 71.7806ZM16.5461 70.3321L19.5428 67.1116L15.1316 67.2829C15.2273 68.4412 15.7252 69.5091 16.5461 70.3321Z" fill="#FCE8DA"/>
<path d="M36.4985 50.0601L36.5009 50.0577L40.1367 46.4448C40.1773 46.4043 40.23 46.3829 40.2874 46.3829C40.3449 46.3829 40.3975 46.4043 40.4382 46.4448C41.4483 47.4533 42.006 48.79 42.006 50.2099C42.006 51.6299 41.4483 52.9666 40.4382 53.9751C39.4258 54.9812 38.0806 55.5354 36.6493 55.5354C35.218 55.5354 33.8728 54.9812 32.8604 53.9751C32.7766 53.8919 32.7766 53.7587 32.8604 53.6754L36.4985 50.0601ZM36.8647 55.1049C38.0304 55.055 39.1218 54.6054 39.9835 53.8205L36.8647 50.7213V55.1049ZM40.285 46.8967L37.1639 49.9983H41.5752C41.5273 48.8399 41.0749 47.753 40.285 46.8967ZM41.5752 50.4216H37.1663L40.285 53.5208C41.0749 52.6646 41.5273 51.58 41.5752 50.4216ZM36.4387 55.1049V50.7189L33.3175 53.8205C34.1768 54.6078 35.273 55.0573 36.4387 55.1049Z" fill="#FCE8DA"/>
<path d="M24.5261 56.3062L19.3417 54.1798C18.6548 53.8967 18.3269 53.1142 18.6093 52.4316L20.7491 47.2797C21.034 46.5971 21.8214 46.2713 22.5084 46.5519L27.6927 48.6783C28.3796 48.9613 28.7075 49.7439 28.4251 50.4265L26.2853 55.5783C26.0029 56.261 25.2154 56.5868 24.5261 56.3062Z" fill="#FCE8DA"/>
<path d="M43.3679 70.4843L38.6192 73.4503C37.9897 73.8427 37.1568 73.6548 36.7618 73.0293L33.7771 68.3103C33.3822 67.6848 33.5713 66.8571 34.2008 66.4646L38.9495 63.4986C39.579 63.1062 40.4119 63.2941 40.8069 63.9196L43.7916 68.6386C44.1865 69.2665 43.9974 70.0918 43.3679 70.4843Z" fill="#FCE8DA"/>
<g opacity="0.4">
<path opacity="0.4" d="M46.9845 77.6223L38.1811 77.7459L35.6273 26.9055L44.342 26.7651L50.0027 74.1853C50.2253 75.9954 48.8179 77.5961 46.9845 77.6223Z" fill="#E2D1C5"/>
</g>
<path d="M61.5107 85.4291C61.5107 92.0556 71.7406 95.1928 84.3592 95.1928C96.9778 95.1928 107.208 92.0556 107.208 85.4291C107.208 85.0081 107.167 84.5823 107.086 84.1542C106.305 79.9871 101.829 75.5393 95.4914 72.9848C93.9715 72.3711 92.3439 71.8669 90.635 71.503C88.9308 71.139 87.1452 70.9131 85.3022 70.856C84.9887 70.8441 84.6751 70.8394 84.3592 70.8394C83.7871 70.8394 83.2175 70.856 82.655 70.8869C80.7593 70.9963 78.9283 71.2794 77.1882 71.7099H77.1858C76.2691 71.9335 75.3811 72.1999 74.5219 72.4996H74.5195C72.9374 73.0514 71.4582 73.7197 70.1034 74.4761C69.0599 75.0588 68.0929 75.6915 67.2121 76.3646C64.1532 78.6955 62.1331 81.4832 61.6304 84.1566C61.5514 84.5847 61.5107 85.0081 61.5107 85.4291Z" fill="#F4A52C"/>
<path d="M61.6328 84.1538C62.8152 89.9479 72.54 92.6998 84.3592 92.6998C96.1783 92.6998 105.903 89.9479 107.086 84.1538C106.305 79.9867 101.829 75.5389 95.4914 72.9844C93.9715 72.3707 92.3439 71.8665 90.635 71.5026C88.9308 71.1387 87.1452 70.9127 85.3022 70.8556C84.9887 70.8437 84.6751 70.839 84.3592 70.839C83.7871 70.839 83.2175 70.8556 82.655 70.8866C80.7593 70.996 78.9283 71.279 77.1882 71.7095H77.1858C76.2691 71.9331 75.3811 72.1995 74.5219 72.4992H74.5195C72.9374 73.051 71.4582 73.7194 70.1034 74.4757C69.0599 75.0585 68.0929 75.6911 67.2121 76.3643C64.1556 78.6904 62.1331 81.4804 61.6328 84.1538Z" fill="#FAB649"/>
<path d="M90.635 71.5002C90.6398 71.5383 90.6446 71.5764 90.6517 71.612C90.7642 72.2519 91.1735 72.7989 91.5565 73.3269C93.1075 75.4557 94.2827 77.8152 95.8169 79.9463C96.3172 80.6432 97.715 82.5745 98.7394 81.9656C100.829 80.7241 97.3081 76.0598 96.6379 74.892C96.2717 74.2545 95.8959 73.61 95.4914 72.9821C93.9715 72.3684 92.344 71.8642 90.635 71.5002Z" fill="#FFD66F"/>
<path d="M82.5378 72.2114C82.6503 72.8536 83.0572 73.4006 83.4402 73.9263C84.9935 76.0574 86.1664 78.4169 87.7006 80.548C88.2009 81.2449 89.5987 83.1763 90.6231 82.5674C92.7126 81.3234 89.1918 76.6616 88.5216 75.4913C88.1147 74.7825 87.6934 74.0642 87.2387 73.3673C86.6594 72.4778 86.0275 71.6215 85.2999 70.8509C84.9864 70.839 84.6728 70.8342 84.3569 70.8342C83.7848 70.8342 83.2152 70.8509 82.6527 70.8818C82.5306 71.3218 82.4588 71.769 82.5378 72.2114Z" fill="#FFD66F"/>
<path d="M74.5363 73.1889C74.6488 73.8311 75.0557 74.3782 75.441 74.9038C76.992 77.0326 78.1672 79.392 79.7015 81.5232C80.2017 82.2225 81.5995 84.1538 82.6239 83.5425C84.7111 82.2986 81.1926 77.6343 80.5224 76.4665C80.1155 75.7553 79.6919 75.0394 79.2395 74.3401C78.6292 73.403 77.9614 72.5015 77.1907 71.7047H77.1883C76.2716 71.9283 75.3836 72.1947 74.5243 72.4944H74.5219C74.4932 72.7251 74.4932 72.9582 74.5363 73.1889Z" fill="#FFD66F"/>
<path d="M67.2144 76.362C68.3179 78.0769 69.292 79.8679 70.4816 81.5233C70.9842 82.2226 72.3796 84.154 73.4041 83.5427C75.4936 82.2987 71.9751 77.6345 71.3026 76.4666C70.922 75.8006 70.5271 75.1275 70.1058 74.4711C69.0622 75.0562 68.0953 75.6889 67.2144 76.362Z" fill="#FFD66F"/>
<path d="M51.8002 86.0828C52.2789 91.3583 44.3635 94.586 34.3204 95.485C24.2772 96.3865 15.9071 94.6193 15.4284 89.3437C15.3973 89.0084 15.3997 88.6682 15.4332 88.3186C15.7515 84.9459 18.9947 81.0856 23.8535 78.6C25.0192 78.003 26.2782 77.4845 27.6113 77.0731C28.9421 76.6616 30.3471 76.3547 31.8096 76.1764C32.0585 76.1454 32.3074 76.1193 32.5587 76.0955C33.0135 76.0551 33.4683 76.0265 33.9182 76.0122C35.4357 75.9647 36.9125 76.0598 38.3295 76.2763H38.3319C39.0763 76.388 39.8039 76.5355 40.51 76.7139H40.5124C41.8121 77.0398 43.0375 77.4679 44.1697 77.9721C45.0433 78.3598 45.8571 78.7951 46.6063 79.2684C49.208 80.9048 51.0199 82.9813 51.6111 85.072C51.7068 85.4121 51.7715 85.7474 51.8002 86.0828Z" fill="#F4A52C"/>
<path d="M51.6107 85.0768C51.0889 89.772 43.547 92.6571 34.1405 93.5015C24.734 94.3458 16.7947 92.8498 15.4328 88.3235C15.7511 84.9508 18.9944 81.0905 23.8532 78.6049C25.0188 78.0079 26.2778 77.4894 27.611 77.0779C28.9418 76.6664 30.3468 76.3596 31.8092 76.1812C32.0581 76.1503 32.3071 76.1242 32.5584 76.1004C33.0131 76.0599 33.4679 76.0314 33.9179 76.0171C35.4354 75.9696 36.9122 76.0647 38.3291 76.2811H38.3315C39.0759 76.3929 39.8035 76.5404 40.5096 76.7188H40.512C41.8117 77.0446 43.0372 77.4728 44.1693 77.977C45.0429 78.3647 45.8567 78.8 46.6059 79.2733C49.2076 80.9097 51.0195 82.9837 51.6107 85.0768Z" fill="#FAB649"/>
<path d="M27.6139 77.0754C27.6139 77.1064 27.6115 77.1349 27.6091 77.1658C27.566 77.6843 27.2812 78.1481 27.0131 78.5953C25.9313 80.4006 25.1677 82.3629 24.1026 84.1681C23.7532 84.7604 22.7814 86.3968 21.9221 85.9829C20.1701 85.1433 22.633 81.1784 23.083 80.2032C23.3295 79.6704 23.5808 79.1305 23.8561 78.6024C25.0193 78.0054 26.2783 77.4869 27.6139 77.0754Z" fill="#FFD66F"/>
<path d="M34.1098 77.0636C34.0668 77.5821 33.7819 78.0459 33.5139 78.4931C32.432 80.3007 31.6685 82.2606 30.6033 84.0683C30.2539 84.6605 29.2821 86.2969 28.4229 85.8831C26.6708 85.0411 29.1361 81.0785 29.5837 80.1009C29.8566 79.5087 30.139 78.9045 30.4502 78.3194C30.8451 77.5702 31.2879 76.8424 31.8097 76.1788C32.0586 76.1478 32.3075 76.1217 32.5588 76.0979C33.0136 76.0575 33.4684 76.0289 33.9184 76.0146C34.0524 76.3548 34.141 76.7068 34.1098 77.0636Z" fill="#FFD66F"/>
<path d="M40.5508 77.2705C40.5077 77.789 40.2229 78.2528 39.9548 78.6999C38.873 80.5052 38.1095 82.4675 37.0443 84.2728C36.6973 84.865 35.7231 86.5014 34.8639 86.09C33.1142 85.248 35.5747 81.2854 36.0247 80.3078C36.2976 79.7132 36.5824 79.1114 36.8936 78.5239C37.3124 77.7343 37.7792 76.9708 38.3344 76.281H38.3368C39.0812 76.3928 39.8088 76.5403 40.5149 76.7186H40.5173C40.5484 76.8994 40.5652 77.0849 40.5508 77.2705Z" fill="#FFD66F"/>
<path d="M46.6062 79.2731C45.8522 80.7168 45.206 82.2129 44.3802 83.6162C44.0308 84.2085 43.059 85.8449 42.1997 85.4334C40.4477 84.5914 42.9106 80.6288 43.3606 79.6513C43.6143 79.0947 43.8824 78.531 44.1696 77.9768C45.0408 78.3645 45.8546 78.7998 46.6062 79.2731Z" fill="#FFD66F"/>
<path d="M64.0359 98.4652H45.8117C45.3163 98.4652 44.9094 98.0823 44.8806 97.59L42.9922 64.4884C42.961 63.9508 43.3919 63.4989 43.9328 63.4989H65.9148C66.4558 63.4989 66.8866 63.9508 66.8555 64.4884L64.967 97.59C64.9383 98.0823 64.529 98.4652 64.0359 98.4652Z" fill="#94CED9"/>
<path d="M63.3418 96.66H46.5035L45.5437 78.1648H64.3016L63.3418 96.66Z" fill="#FCE8DA"/>
<g opacity="0.2">
<path opacity="0.2" d="M62.1977 94.4194H56.4102L56.5466 66.6765H63.3777L62.1977 94.4194Z" fill="#23B5D3"/>
</g>
<path d="M88.2751 85.3431C88.0022 85.3407 87.7366 85.3621 87.4781 85.4073C87.4781 85.2503 87.3512 85.1243 87.1932 85.1243H68.6747C68.0882 85.1243 67.6143 85.5952 67.6143 86.1779V89.9716C67.6143 94.1198 70.2927 97.9848 74.2444 99.3739C78.4043 100.834 83.1267 99.3382 85.6662 95.7609C86.1138 95.1306 86.4848 94.4504 86.772 93.7344C87.2268 93.8962 87.7198 93.9842 88.232 93.9842C90.7069 93.9842 92.7007 91.9268 92.5739 89.4389C92.459 87.1698 90.5609 85.3645 88.2751 85.3431ZM88.232 93.0423C87.8275 93.0423 87.4398 92.9709 87.0808 92.8425C87.3392 91.9648 87.4757 91.0372 87.4757 90.0763V86.3682C87.7174 86.3135 87.9711 86.285 88.2296 86.285C90.1061 86.285 91.6284 87.7977 91.6284 89.6624C91.6308 91.5272 90.1085 93.0423 88.232 93.0423Z" fill="#FCE8DA"/>
<path d="M76.6664 98.6412C78.6196 98.7602 80.587 98.6056 82.284 97.5519C83.7728 96.6267 84.9001 95.1686 85.4075 93.4966C85.6134 92.8187 85.7163 92.1123 85.7163 91.4035V91.3678H69.3782V91.4035C69.3782 95.3565 72.5185 98.3368 76.372 98.6198C76.4702 98.6294 76.5683 98.6365 76.6664 98.6412Z" fill="#682908"/>
</svg>
